<svg width="71" height="17" viewBox="0 0 71 17" fill="none" xmlns="http://www.w3.org/2000/svg">
<path d="M7.94336 1.68359V3.68555H7.77734C6.9375 3.68555 6.21484 3.8125 5.60938 4.06641C5.01042 4.32031 4.51562 4.67188 4.125 5.12109C3.74089 5.5638 3.45443 6.08464 3.26562 6.68359C3.08333 7.27604 2.99219 7.91081 2.99219 8.58789V10.8535C2.99219 11.5957 3.09635 12.2174 3.30469 12.7188C3.51953 13.2201 3.80599 13.5977 4.16406 13.8516C4.52865 14.1055 4.92904 14.2324 5.36523 14.2324C5.83398 14.2324 6.23763 14.112 6.57617 13.8711C6.91471 13.6237 7.17513 13.2852 7.35742 12.8555C7.53971 12.4258 7.63086 11.9342 7.63086 11.3809C7.63086 10.8535 7.54297 10.375 7.36719 9.94531C7.19141 9.50911 6.93424 9.16081 6.5957 8.90039C6.25716 8.63997 5.84049 8.50977 5.3457 8.50977C4.88346 8.50977 4.46354 8.62044 4.08594 8.8418C3.71484 9.05664 3.41862 9.33659 3.19727 9.68164C2.97591 10.0267 2.85221 10.3945 2.82617 10.7852L1.91797 10.4336C1.97005 9.84766 2.10352 9.31706 2.31836 8.8418C2.53971 8.36654 2.82943 7.95964 3.1875 7.62109C3.54557 7.28255 3.95898 7.02214 4.42773 6.83984C4.89648 6.65104 5.41406 6.55664 5.98047 6.55664C6.89844 6.55664 7.65365 6.78125 8.24609 7.23047C8.84505 7.67969 9.29102 8.26562 9.58398 8.98828C9.88346 9.71094 10.0332 10.4922 10.0332 11.332C10.0332 12.2435 9.84766 13.0671 9.47656 13.8027C9.11198 14.5319 8.58138 15.1146 7.88477 15.5508C7.19466 15.9805 6.36458 16.1953 5.39453 16.1953C4.63281 16.1953 3.95247 16.0488 3.35352 15.7559C2.75456 15.4629 2.24674 15.0625 1.83008 14.5547C1.41992 14.0404 1.10742 13.4479 0.892578 12.7773C0.677734 12.1003 0.570312 11.3809 0.570312 10.6191V9.63281C0.570312 8.53906 0.707031 7.51367 0.980469 6.55664C1.25391 5.59961 1.67383 4.75651 2.24023 4.02734C2.81315 3.29818 3.54557 2.72526 4.4375 2.30859C5.32943 1.89193 6.39714 1.68359 7.64062 1.68359H7.94336ZM21.3551 10.043C21.3551 11.5143 21.163 12.7025 20.7789 13.6074C20.3948 14.5059 19.8544 15.1634 19.1578 15.5801C18.4612 15.9902 17.6409 16.1953 16.6969 16.1953C15.7659 16.1953 14.9456 15.9902 14.2359 15.5801C13.5328 15.1634 12.9859 14.5059 12.5953 13.6074C12.2047 12.7025 12.0094 11.5143 12.0094 10.043V7.68945C12.0094 6.21159 12.2014 5.02669 12.5855 4.13477C12.9762 3.24284 13.523 2.59505 14.2262 2.19141C14.9293 1.78776 15.7464 1.58594 16.6773 1.58594C17.6214 1.58594 18.4417 1.78776 19.1383 2.19141C19.8414 2.59505 20.385 3.24284 20.7691 4.13477C21.1598 5.02669 21.3551 6.21159 21.3551 7.68945V10.043ZM18.9332 7.32812C18.9332 6.39714 18.8453 5.65495 18.6695 5.10156C18.5003 4.54818 18.2464 4.15104 17.9078 3.91016C17.5758 3.66276 17.1656 3.53906 16.6773 3.53906C16.2021 3.53906 15.7952 3.66276 15.4566 3.91016C15.1246 4.15104 14.8707 4.54818 14.6949 5.10156C14.5191 5.65495 14.4312 6.39714 14.4312 7.32812V10.3848C14.4312 11.3158 14.5191 12.0645 14.6949 12.6309C14.8772 13.1973 15.1376 13.6107 15.4762 13.8711C15.8147 14.125 16.2216 14.252 16.6969 14.252C17.1852 14.252 17.5953 14.125 17.9273 13.8711C18.2594 13.6107 18.51 13.1973 18.6793 12.6309C18.8486 12.0645 18.9332 11.3158 18.9332 10.3848V7.32812ZM23.4973 4.51562C23.4973 3.97526 23.6145 3.48372 23.8488 3.04102C24.0897 2.59831 24.4348 2.24349 24.884 1.97656C25.3332 1.70964 25.8768 1.57617 26.5148 1.57617C27.1659 1.57617 27.716 1.70964 28.1652 1.97656C28.6145 2.24349 28.9562 2.59831 29.1906 3.04102C29.425 3.48372 29.5422 3.97526 29.5422 4.51562V5.26758C29.5422 5.79492 29.425 6.27995 29.1906 6.72266C28.9562 7.16536 28.6145 7.52018 28.1652 7.78711C27.7225 8.05404 27.1789 8.1875 26.5344 8.1875C25.8898 8.1875 25.3397 8.05404 24.884 7.78711C24.4348 7.52018 24.0897 7.16536 23.8488 6.72266C23.6145 6.27995 23.4973 5.79492 23.4973 5.26758V4.51562ZM25.177 5.26758C25.177 5.52148 25.2258 5.76237 25.3234 5.99023C25.4211 6.21159 25.5708 6.39388 25.7727 6.53711C25.9745 6.67383 26.2284 6.74219 26.5344 6.74219C26.8404 6.74219 27.091 6.67383 27.2863 6.53711C27.4816 6.39388 27.6249 6.21159 27.716 5.99023C27.8137 5.76237 27.8625 5.52148 27.8625 5.26758V4.51562C27.8625 4.25521 27.8137 4.01107 27.716 3.7832C27.6184 3.55534 27.4686 3.37305 27.2668 3.23633C27.0715 3.0931 26.8208 3.02148 26.5148 3.02148C26.2154 3.02148 25.9647 3.0931 25.7629 3.23633C25.5676 3.37305 25.4211 3.55534 25.3234 3.7832C25.2258 4.01107 25.177 4.25521 25.177 4.51562V5.26758ZM30.343 12.5137C30.343 11.9798 30.4602 11.4915 30.6945 11.0488C30.9354 10.6061 31.2805 10.2513 31.7297 9.98438C32.1789 9.71745 32.7225 9.58398 33.3605 9.58398C34.0181 9.58398 34.5682 9.71745 35.0109 9.98438C35.4602 10.2513 35.802 10.6061 36.0363 11.0488C36.2707 11.4915 36.3879 11.9798 36.3879 12.5137V13.2754C36.3879 13.8092 36.2707 14.2975 36.0363 14.7402C35.8085 15.1829 35.4699 15.5378 35.0207 15.8047C34.578 16.0716 34.0311 16.2051 33.3801 16.2051C32.7355 16.2051 32.1854 16.0716 31.7297 15.8047C31.2805 15.5378 30.9354 15.1829 30.6945 14.7402C30.4602 14.2975 30.343 13.8092 30.343 13.2754V12.5137ZM32.0129 13.2754C32.0129 13.5293 32.065 13.7702 32.1691 13.998C32.2798 14.2259 32.4361 14.4082 32.6379 14.5449C32.8462 14.6816 33.0936 14.75 33.3801 14.75C33.7121 14.75 33.9725 14.6816 34.1613 14.5449C34.3566 14.4082 34.4966 14.2292 34.5812 14.0078C34.6724 13.7799 34.718 13.5358 34.718 13.2754V12.5137C34.718 12.123 34.604 11.778 34.3762 11.4785C34.1548 11.179 33.8163 11.0293 33.3605 11.0293C32.9113 11.0293 32.5728 11.179 32.3449 11.4785C32.1236 11.778 32.0129 12.123 32.0129 12.5137V13.2754ZM27.0227 14.9258L25.7922 14.2227L32.7355 3.10938L33.966 3.8125L27.0227 14.9258ZM55.35 9.26172C55.35 10.7005 55.1026 11.9375 54.6078 12.9727C54.113 14.0078 53.4229 14.8053 52.5375 15.3652C51.6586 15.9186 50.6267 16.1953 49.4418 16.1953C48.2829 16.1953 47.2543 15.9186 46.3559 15.3652C45.4639 14.8053 44.7641 14.0078 44.2562 12.9727C43.7549 11.9375 43.5043 10.7005 43.5043 9.26172V8.5293C43.5043 7.09049 43.7549 5.85352 44.2562 4.81836C44.7576 3.77669 45.4542 2.97917 46.3461 2.42578C47.238 1.86589 48.2634 1.58594 49.4223 1.58594C50.6072 1.58594 51.6423 1.86589 52.5277 2.42578C53.4131 2.97917 54.1033 3.77669 54.598 4.81836C55.0993 5.85352 55.35 7.09049 55.35 8.5293V9.26172ZM52.8207 8.50977C52.8207 7.46159 52.6872 6.57943 52.4203 5.86328C52.1534 5.14062 51.766 4.59701 51.2582 4.23242C50.7504 3.86133 50.1384 3.67578 49.4223 3.67578C48.7191 3.67578 48.1137 3.86133 47.6059 4.23242C47.1046 4.59701 46.7172 5.14062 46.4437 5.86328C46.1768 6.57943 46.0434 7.46159 46.0434 8.50977V9.26172C46.0434 10.3099 46.1801 11.1953 46.4535 11.918C46.727 12.6406 47.1176 13.1875 47.6254 13.5586C48.1332 13.9297 48.7387 14.1152 49.4418 14.1152C50.1645 14.1152 50.7764 13.9297 51.2777 13.5586C51.7855 13.1875 52.1697 12.6406 52.4301 11.918C52.6905 11.1953 52.8207 10.3099 52.8207 9.26172V8.50977ZM58.5176 16V4.42773C58.5176 3.25586 58.8496 2.35742 59.5137 1.73242C60.1777 1.10742 61.0859 0.794922 62.2383 0.794922C62.4727 0.794922 62.7038 0.811198 62.9316 0.84375C63.1595 0.876302 63.3809 0.91862 63.5957 0.970703L63.5371 2.86523C63.4134 2.83919 63.2734 2.81966 63.1172 2.80664C62.9609 2.79362 62.7982 2.78711 62.6289 2.78711C62.0951 2.78711 61.6784 2.93034 61.3789 3.2168C61.0859 3.49674 60.9395 3.90039 60.9395 4.42773V16H58.5176ZM63.0977 7.2207H56.9062V5.43359H63.0977V7.2207ZM65.7574 16V4.42773C65.7574 3.25586 66.0895 2.35742 66.7535 1.73242C67.4176 1.10742 68.3258 0.794922 69.4781 0.794922C69.7125 0.794922 69.9436 0.811198 70.1715 0.84375C70.3994 0.876302 70.6207 0.91862 70.8355 0.970703L70.777 2.86523C70.6533 2.83919 70.5133 2.81966 70.357 2.80664C70.2008 2.79362 70.038 2.78711 69.8688 2.78711C69.3349 2.78711 68.9182 2.93034 68.6188 3.2168C68.3258 3.49674 68.1793 3.90039 68.1793 4.42773V16H65.7574ZM70.3375 7.2207H64.1461V5.43359H70.3375V7.2207Z" fill="#FFB400"/>
</svg>
