<svg width="22" height="23" viewBox="0 0 22 23" fill="none" xmlns="http://www.w3.org/2000/svg">
<path d="M18.8992 5.93708C18.7613 5.74973 18.5232 5.66465 18.2981 5.72266C17.7223 5.8709 16.6154 6.28426 15.799 7.37524C15.2082 8.16543 13.9582 7.61157 14.1443 6.64262C14.2285 6.20305 14.3939 5.71407 14.6728 5.17696C15.9657 2.68735 13.9853 0.784693 13.8439 0.653639C13.8384 0.648482 13.8328 0.644186 13.8263 0.639459C13.7602 0.594342 13.361 0.345553 12.9884 0.646334C12.9064 0.712506 10.9315 2.2654 8.93176 4.65661C6.77086 7.24075 4.81836 10.5248 4.81836 13.9061C4.81836 18.6447 8.67352 22.4994 13.4117 22.4994C18.1498 22.4994 22.005 18.6442 22.005 13.9061C22.005 11.0568 20.618 8.27801 18.8979 5.93708H18.8992Z" fill="white"/>
<path d="M6.03129 4.64062H2.19805C1.61189 4.64062 1.13672 5.1158 1.13672 5.70195C1.13672 6.28811 1.61189 6.76328 2.19805 6.76328H6.03129C6.61744 6.76328 7.09262 6.28811 7.09262 5.70195C7.09262 5.1158 6.61744 4.64062 6.03129 4.64062Z" fill="white"/>
<path d="M3.75746 8.88281H1.06719C0.481032 8.88281 0.00585938 9.35799 0.00585938 9.94414C0.00585938 10.5303 0.481032 11.0055 1.06719 11.0055H3.75746C4.34362 11.0055 4.81879 10.5303 4.81879 9.94414C4.81879 9.35799 4.34362 8.88281 3.75746 8.88281Z" fill="white"/>
<path d="M3.22242 13.1289H2.84258C2.25642 13.1289 1.78125 13.6041 1.78125 14.1902C1.78125 14.7764 2.25642 15.2516 2.84258 15.2516H3.22242C3.80858 15.2516 4.28375 14.7764 4.28375 14.1902C4.28375 13.6041 3.80858 13.1289 3.22242 13.1289Z" fill="white"/>
<path d="M4.37602 17.3594H1.47734C0.891188 17.3594 0.416016 17.8345 0.416016 18.4207C0.416016 19.0069 0.891188 19.482 1.47734 19.482H4.37602C4.96217 19.482 5.43734 19.0069 5.43734 18.4207C5.43734 17.8345 4.96217 17.3594 4.37602 17.3594Z" fill="white"/>
<path d="M19.466 6.74489C19.2821 6.47032 19.093 6.2009 18.8992 5.93708C18.7613 5.74973 18.5232 5.66465 18.2981 5.72266C17.7223 5.8709 16.6154 6.28426 15.799 7.37524C15.2082 8.16544 13.9582 7.61157 14.1443 6.64262C14.2285 6.20305 14.3939 5.71407 14.6728 5.17696C15.9657 2.68735 13.9853 0.784693 13.8439 0.653639C13.8384 0.648482 13.8328 0.644186 13.8263 0.639459C13.7602 0.594342 13.361 0.345553 12.9884 0.646334C12.9064 0.712506 10.9315 2.2654 8.93176 4.65661C6.77086 7.24075 4.81836 10.5248 4.81836 13.9061C4.81836 15.1917 5.10281 16.412 5.61113 17.5086C6.26297 17.6194 6.93285 17.6774 7.61605 17.6774C13.8598 17.6774 18.9787 12.8636 19.4651 6.74489H19.466Z" fill="white"/>
<path d="M13.4239 19.4963C10.7229 19.4963 8.5332 17.3066 8.5332 14.6055C8.5332 11.9045 10.7229 9.71484 13.4239 9.71484C16.1249 9.71484 18.3146 11.9045 18.3146 14.6055C18.3146 17.3066 16.1249 19.4963 13.4239 19.4963Z" fill="#422659"/>
<path d="M15.3618 14.1585H13.9086V11.6135C13.9086 11.2921 13.6482 11.0312 13.3264 11.0312C13.0045 11.0312 12.7441 11.2916 12.7441 11.6135V14.7407C12.7441 15.0621 13.0045 15.323 13.3264 15.323H15.3618C15.6832 15.323 15.944 15.0626 15.944 14.7407C15.944 14.4189 15.6836 14.1585 15.3618 14.1585Z" fill="white"/>
</svg>
