<svg width="107" height="36" viewBox="0 0 107 36" fill="none" xmlns="http://www.w3.org/2000/svg">
<g clip-path="url(#clip0_2931_3688)">
<rect width="107" height="36" rx="18" fill="#422659"/>
<path d="M17.9787 23H16.348L20.0121 12.8182H21.7869L25.451 23H23.8203L20.9418 14.6676H20.8622L17.9787 23ZM18.2521 19.0128H23.5419V20.3054H18.2521V19.0128ZM30.6175 23H27.3213V12.8182H30.7219C31.7195 12.8182 32.5763 13.022 33.2922 13.4297C34.0081 13.834 34.5567 14.4157 34.9378 15.1747C35.3223 15.9304 35.5145 16.8369 35.5145 17.8942C35.5145 18.9548 35.3206 19.8662 34.9328 20.6286C34.5484 21.3909 33.9916 21.9775 33.2624 22.3885C32.5332 22.7962 31.6516 23 30.6175 23ZM28.8576 21.6577H30.533C31.3086 21.6577 31.9532 21.5118 32.4669 21.2202C32.9807 20.9252 33.3651 20.4993 33.6203 19.9425C33.8756 19.3823 34.0032 18.6996 34.0032 17.8942C34.0032 17.0954 33.8756 16.4176 33.6203 15.8608C33.3685 15.304 32.9923 14.8814 32.4918 14.593C31.9913 14.3047 31.3699 14.1605 30.6275 14.1605H28.8576V21.6577ZM41.121 23H37.8249V12.8182H41.2254C42.2231 12.8182 43.0798 13.022 43.7957 13.4297C44.5116 13.834 45.0602 14.4157 45.4413 15.1747C45.8258 15.9304 46.018 16.8369 46.018 17.8942C46.018 18.9548 45.8241 19.8662 45.4364 20.6286C45.0519 21.3909 44.4951 21.9775 43.7659 22.3885C43.0367 22.7962 42.1551 23 41.121 23ZM39.3611 21.6577H41.0365C41.8121 21.6577 42.4567 21.5118 42.9705 21.2202C43.4842 20.9252 43.8687 20.4993 44.1239 19.9425C44.3791 19.3823 44.5067 18.6996 44.5067 17.8942C44.5067 17.0954 44.3791 16.4176 44.1239 15.8608C43.872 15.304 43.4958 14.8814 42.9953 14.593C42.4948 14.3047 41.8734 14.1605 41.131 14.1605H39.3611V21.6577ZM60.8901 16.1293H59.339C59.2793 15.7978 59.1683 15.5062 59.0059 15.2543C58.8435 15.0024 58.6446 14.7886 58.4093 14.6129C58.174 14.4373 57.9105 14.3047 57.6188 14.2152C57.3305 14.1257 57.0239 14.081 56.6991 14.081C56.1124 14.081 55.5871 14.2285 55.1231 14.5234C54.6624 14.8184 54.2978 15.2509 54.0293 15.821C53.7642 16.3911 53.6316 17.0871 53.6316 17.9091C53.6316 18.7377 53.7642 19.437 54.0293 20.0071C54.2978 20.5772 54.664 21.008 55.1281 21.2997C55.5921 21.5914 56.1141 21.7372 56.6941 21.7372C57.0156 21.7372 57.3205 21.6941 57.6089 21.608C57.9005 21.5185 58.164 21.3875 58.3994 21.2152C58.6347 21.0429 58.8335 20.8324 58.996 20.5838C59.1617 20.3319 59.276 20.0436 59.339 19.7188L60.8901 19.7237C60.8073 20.2242 60.6465 20.6849 60.4079 21.1058C60.1726 21.5234 59.8693 21.8847 59.4981 22.1896C59.1302 22.4912 58.7093 22.7249 58.2353 22.8906C57.7613 23.0563 57.2443 23.1392 56.6842 23.1392C55.8025 23.1392 55.017 22.9304 54.3276 22.5128C53.6382 22.0919 53.0947 21.4903 52.6969 20.7081C52.3025 19.9259 52.1053 18.9929 52.1053 17.9091C52.1053 16.822 52.3042 15.889 52.7019 15.1101C53.0996 14.3279 53.6432 13.728 54.3326 13.3104C55.022 12.8894 55.8058 12.679 56.6842 12.679C57.2244 12.679 57.7282 12.7569 58.1955 12.9126C58.6662 13.0651 59.0888 13.2905 59.4633 13.5888C59.8378 13.8838 60.1477 14.245 60.393 14.6726C60.6382 15.0968 60.804 15.5824 60.8901 16.1293ZM63.9201 23H62.2894L65.9535 12.8182H67.7283L71.3924 23H69.7617L66.8832 14.6676H66.8036L63.9201 23ZM64.1935 19.0128H69.4833V20.3054H64.1935V19.0128ZM73.2628 23V12.8182H76.892C77.6808 12.8182 78.3354 12.9541 78.8558 13.2259C79.3795 13.4976 79.7706 13.8738 80.0291 14.3544C80.2876 14.8317 80.4169 15.3835 80.4169 16.0099C80.4169 16.633 80.286 17.1816 80.0241 17.6555C79.7656 18.1262 79.3745 18.4924 78.8508 18.7543C78.3305 19.0161 77.6759 19.147 76.887 19.147H74.1378V17.8246H76.7478C77.245 17.8246 77.6494 17.7533 77.9609 17.6108C78.2758 17.4683 78.5061 17.2611 78.652 16.9893C78.7978 16.7176 78.8707 16.3911 78.8707 16.0099C78.8707 15.6255 78.7961 15.2924 78.647 15.0107C78.5011 14.7289 78.2708 14.5135 77.9559 14.3643C77.6444 14.2119 77.2351 14.1357 76.7279 14.1357H74.799V23H73.2628ZM78.289 18.4062L80.8047 23H79.0547L76.5887 18.4062H78.289ZM82.1841 14.1406V12.8182H90.064V14.1406H86.8872V23H85.3559V14.1406H82.1841Z" fill="white"/>
</g>
<defs>
<clipPath id="clip0_2931_3688">
<rect width="107" height="36" rx="18" fill="white"/>
</clipPath>
</defs>
</svg>
