<svg width="20" height="25" viewBox="0 0 20 25" fill="none" xmlns="http://www.w3.org/2000/svg">
<path d="M16.7045 13.2631C16.729 11.4104 17.7481 9.65738 19.3648 8.68699C18.3449 7.26488 16.6366 6.36322 14.8592 6.30893C12.9636 6.11467 11.1258 7.41639 10.1598 7.41639C9.17508 7.41639 7.68777 6.32822 6.08619 6.36039C3.99859 6.42624 2.05242 7.58501 1.03676 9.36687C-1.14651 13.0573 0.482015 18.4809 2.5734 21.464C3.61977 22.9247 4.84267 24.5564 6.44281 24.4985C8.00865 24.4351 8.59346 23.5237 10.4836 23.5237C12.3561 23.5237 12.9048 24.4985 14.5374 24.4617C16.2176 24.4351 17.2762 22.9945 18.2859 21.52C19.0377 20.4792 19.6162 19.3288 20 18.1116C18.0254 17.2962 16.7068 15.3562 16.7045 13.2631Z" fill="white"/>
<path d="M13.6208 4.34713C14.5369 3.27343 14.9882 1.89335 14.8789 0.5C13.4793 0.643521 12.1864 1.2966 11.2579 2.32911C10.35 3.33793 9.87749 4.69372 9.96681 6.03382C11.3669 6.04789 12.7434 5.41252 13.6208 4.34713Z" fill="white"/>
</svg>
