<svg width="15" height="14" viewBox="0 0 15 14" fill="none" xmlns="http://www.w3.org/2000/svg">
<path d="M0.667317 7.00008C0.667317 6.49382 1.07772 6.08342 1.58398 6.08342H9.40893C10.2998 6.08342 10.746 5.00627 10.116 4.37631L7.34982 1.61009C6.99075 1.25101 6.99178 0.668518 7.35212 0.310714C7.71066 -0.045306 8.28962 -0.0442829 8.6469 0.313002L14.6269 6.29298C15.0174 6.6835 15.0174 7.31666 14.6269 7.70719L8.64719 13.6869C8.29012 14.044 7.71119 14.0439 7.35411 13.6869C6.99726 13.33 6.997 12.7515 7.35353 12.3944L10.1197 9.62322C10.7488 8.993 10.3025 7.91675 9.41199 7.91675H1.58398C1.07772 7.91675 0.667317 7.50634 0.667317 7.00008Z" fill="#495F6A"/>
</svg>
