<svg width="79" height="21" viewBox="0 0 79 21" fill="none" xmlns="http://www.w3.org/2000/svg">
<g opacity="0.9">
<path d="M0.0507812 0.00878906H4.2959C6.16895 0.00878906 7.57715 0.289062 8.52051 0.849609C9.46387 1.41016 9.93555 2.36377 9.93555 3.71045C9.93555 4.2915 9.82275 4.81445 9.59717 5.2793C9.37842 5.7373 9.05713 6.1167 8.6333 6.41748C8.20947 6.71826 7.68652 6.92676 7.06445 7.04297V7.14551C7.7207 7.24805 8.30176 7.43604 8.80762 7.70947C9.31348 7.98291 9.70996 8.36572 9.99707 8.85791C10.2842 9.3501 10.4277 9.97559 10.4277 10.7344C10.4277 11.6572 10.2124 12.4365 9.78174 13.0723C9.35791 13.708 8.75635 14.1899 7.97705 14.5181C7.19775 14.8394 6.2749 15 5.2085 15H0.0507812V0.00878906ZM1.79395 6.43799H4.66504C5.9707 6.43799 6.87305 6.22266 7.37207 5.79199C7.87793 5.36133 8.13086 4.73242 8.13086 3.90527C8.13086 3.05078 7.83008 2.43555 7.22852 2.05957C6.63379 1.68359 5.68359 1.49561 4.37793 1.49561H1.79395V6.43799ZM1.79395 7.9043V13.5132H4.91113C6.24414 13.5132 7.1875 13.2534 7.74121 12.7339C8.29492 12.2075 8.57178 11.5 8.57178 10.6113C8.57178 10.0439 8.44531 9.55859 8.19238 9.15527C7.94629 8.75195 7.54297 8.44434 6.98242 8.23242C6.42871 8.01367 5.68701 7.9043 4.75732 7.9043H1.79395ZM22.7904 3.76172V15H21.3959L21.1498 13.4209H21.0575C20.8251 13.8105 20.5243 14.1387 20.1551 14.4053C19.786 14.6719 19.369 14.8701 18.9042 15C18.4462 15.1367 17.9574 15.2051 17.4379 15.2051C16.5492 15.2051 15.8041 15.0615 15.2025 14.7744C14.6009 14.4873 14.1463 14.043 13.8387 13.4414C13.5379 12.8398 13.3876 12.0674 13.3876 11.124V3.76172H15.1102V11.001C15.1102 11.9375 15.3221 12.6382 15.746 13.103C16.1698 13.561 16.8158 13.79 17.6839 13.79C18.5179 13.79 19.181 13.6328 19.6732 13.3184C20.1722 13.0039 20.5311 12.5425 20.7499 11.9341C20.9686 11.3188 21.078 10.5669 21.078 9.67822V3.76172H22.7904ZM24.7556 3.76172H26.5808L29.0622 10.2832C29.2058 10.666 29.3391 11.0352 29.4621 11.3906C29.5852 11.7393 29.6946 12.0742 29.7903 12.3955C29.886 12.7168 29.9612 13.0278 30.0158 13.3286H30.0876C30.1833 12.9868 30.32 12.5391 30.4978 11.9854C30.6755 11.4248 30.8669 10.854 31.072 10.2729L33.4201 3.76172H35.2556L30.3645 16.6509C30.1047 17.3413 29.8005 17.9429 29.4519 18.4556C29.1101 18.9683 28.6931 19.3613 28.2009 19.6348C27.7087 19.915 27.114 20.0552 26.4167 20.0552C26.0954 20.0552 25.8117 20.0347 25.5656 19.9937C25.3196 19.9595 25.1076 19.9185 24.9299 19.8706V18.5068C25.0803 18.541 25.2614 18.5718 25.4734 18.5991C25.6921 18.6265 25.9177 18.6401 26.1501 18.6401C26.5739 18.6401 26.9397 18.5581 27.2473 18.394C27.5617 18.2368 27.8318 18.0044 28.0573 17.6968C28.2829 17.3892 28.4778 17.0234 28.6418 16.5996L29.2571 15.0205L24.7556 3.76172Z" fill="#495F6A"/>
<path d="M43.0347 3.43359C44.3131 3.43359 45.3077 3.76514 46.0186 4.42822C46.7364 5.08447 47.0953 6.14062 47.0953 7.59668V15H44.6856V8.04785C44.6856 7.16602 44.5045 6.50635 44.1422 6.06885C43.7799 5.62451 43.2193 5.40234 42.4605 5.40234C41.3599 5.40234 40.5943 5.74072 40.1637 6.41748C39.7398 7.09424 39.5279 8.0752 39.5279 9.36035V15H37.1182V3.64893H38.9947L39.3331 5.18701H39.4664C39.7125 4.79053 40.0167 4.46582 40.379 4.21289C40.7481 3.95313 41.1583 3.7583 41.6095 3.62842C42.0675 3.49854 42.5426 3.43359 43.0347 3.43359ZM60.6577 9.29883C60.6577 10.2422 60.5346 11.0796 60.2885 11.811C60.0424 12.5425 59.6835 13.1611 59.2119 13.667C58.7402 14.166 58.1728 14.5488 57.5097 14.8154C56.8466 15.0752 56.0981 15.2051 55.2641 15.2051C54.4848 15.2051 53.7705 15.0752 53.121 14.8154C52.4716 14.5488 51.9077 14.166 51.4291 13.667C50.9575 13.1611 50.5917 12.5425 50.332 11.811C50.0722 11.0796 49.9423 10.2422 49.9423 9.29883C49.9423 8.04785 50.1577 6.98828 50.5883 6.12012C51.0258 5.24512 51.6479 4.57861 52.4545 4.12061C53.2612 3.6626 54.2216 3.43359 55.3359 3.43359C56.3818 3.43359 57.3046 3.6626 58.1044 4.12061C58.9042 4.57861 59.5297 5.24512 59.9809 6.12012C60.4321 6.99512 60.6577 8.05469 60.6577 9.29883ZM52.4238 9.29883C52.4238 10.126 52.5229 10.8335 52.7211 11.4214C52.9262 12.0093 53.2407 12.4604 53.6645 12.7749C54.0883 13.0825 54.6352 13.2363 55.3051 13.2363C55.975 13.2363 56.5219 13.0825 56.9457 12.7749C57.3696 12.4604 57.6806 12.0093 57.8788 11.4214C58.0771 10.8335 58.1762 10.126 58.1762 9.29883C58.1762 8.47168 58.0771 7.771 57.8788 7.19678C57.6806 6.61572 57.3696 6.1748 56.9457 5.87402C56.5219 5.56641 55.9716 5.4126 55.2949 5.4126C54.2968 5.4126 53.5688 5.74756 53.1108 6.41748C52.6528 7.0874 52.4238 8.04785 52.4238 9.29883ZM72.846 14.9897L71.4104 9.70898C71.3421 9.44922 71.2601 9.13477 71.1644 8.76562C71.0687 8.39648 70.9729 8.01709 70.8772 7.62744C70.7815 7.23096 70.6927 6.86523 70.6106 6.53027C70.5354 6.19531 70.4773 5.93555 70.4363 5.75098H70.3543C70.3201 5.93555 70.2654 6.19531 70.1902 6.53027C70.115 6.86523 70.0296 7.23096 69.9339 7.62744C69.8382 8.02393 69.7425 8.41016 69.6468 8.78613C69.5579 9.16211 69.4759 9.4834 69.4007 9.75L67.8934 14.9897H65.2479L62.0691 3.63867H64.5096L65.9861 9.27832C66.0818 9.66113 66.1741 10.0747 66.263 10.519C66.3587 10.9634 66.4407 11.3872 66.5091 11.7905C66.5774 12.1938 66.6287 12.5254 66.6629 12.7852H66.7449C66.7723 12.6006 66.8099 12.3682 66.8577 12.0879C66.9056 11.8008 66.9603 11.5034 67.0218 11.1958C67.0833 10.8813 67.1448 10.5874 67.2063 10.314C67.2679 10.0337 67.326 9.80811 67.3807 9.63721L69.1238 3.63867H71.7591L73.4305 9.63721C73.5057 9.89697 73.5877 10.2251 73.6766 10.6216C73.7654 11.0112 73.844 11.4043 73.9124 11.8008C73.9876 12.1904 74.0354 12.5151 74.056 12.7749H74.138C74.1653 12.5425 74.2132 12.228 74.2815 11.8315C74.3567 11.4282 74.4422 11.001 74.5379 10.5498C74.6336 10.0918 74.7327 9.66797 74.8353 9.27832L76.3426 3.63867H78.742L75.5428 14.9897H72.846Z" fill="#1F292D"/>
</g>
</svg>
