<svg width="10" height="3" viewBox="0 0 10 3" fill="none" xmlns="http://www.w3.org/2000/svg">
<path d="M0.975774 2.07955C0.730509 2.07955 0.520045 1.99171 0.344382 1.81605C0.168719 1.64039 0.0808878 1.42992 0.0808878 1.18466C0.0808878 0.939394 0.168719 0.72893 0.344382 0.553267C0.520045 0.377604 0.730509 0.289773 0.975774 0.289773C1.22104 0.289773 1.4315 0.377604 1.60717 0.553267C1.78283 0.72893 1.87066 0.939394 1.87066 1.18466C1.87066 1.34706 1.82923 1.49621 1.74637 1.6321C1.66683 1.76799 1.55911 1.87737 1.42322 1.96023C1.29064 2.03977 1.14149 2.07955 0.975774 2.07955ZM5.00124 2.07955C4.75598 2.07955 4.54551 1.99171 4.36985 1.81605C4.19419 1.64039 4.10636 1.42992 4.10636 1.18466C4.10636 0.939394 4.19419 0.72893 4.36985 0.553267C4.54551 0.377604 4.75598 0.289773 5.00124 0.289773C5.24651 0.289773 5.45697 0.377604 5.63264 0.553267C5.8083 0.72893 5.89613 0.939394 5.89613 1.18466C5.89613 1.34706 5.8547 1.49621 5.77184 1.6321C5.69229 1.76799 5.58458 1.87737 5.44869 1.96023C5.31611 2.03977 5.16696 2.07955 5.00124 2.07955ZM9.02671 2.07955C8.78145 2.07955 8.57098 1.99171 8.39532 1.81605C8.21966 1.64039 8.13183 1.42992 8.13183 1.18466C8.13183 0.939394 8.21966 0.72893 8.39532 0.553267C8.57098 0.377604 8.78145 0.289773 9.02671 0.289773C9.27198 0.289773 9.48244 0.377604 9.6581 0.553267C9.83377 0.72893 9.9216 0.939394 9.9216 1.18466C9.9216 1.34706 9.88017 1.49621 9.79731 1.6321C9.71776 1.76799 9.61005 1.87737 9.47416 1.96023C9.34158 2.03977 9.19243 2.07955 9.02671 2.07955Z" fill="#1F292D"/>
</svg>
