<svg width="60" height="60" viewBox="0 0 60 60" fill="none" xmlns="http://www.w3.org/2000/svg">
<path d="M60 45V47.8125C60 54.5438 54.5438 60 47.8125 60H25.1419C28.1447 56.8106 30 52.5281 30 47.8125V43.125H58.125C59.1609 43.125 60 43.9641 60 45ZM46.875 4.6875V37.5H27.1875C25.6341 37.5 24.375 38.7591 24.375 40.3125V47.8125C24.375 54.5325 18.9075 60 12.1875 60C5.4675 60 0 54.5325 0 47.8125V4.6875C0 2.10281 2.10281 0 4.6875 0H42.1875C44.7722 0 46.875 2.10281 46.875 4.6875ZM35.625 22.5H11.25V28.125H35.625V22.5ZM35.625 11.25H11.25V16.875H35.625V11.25Z" fill="#495F6A"/>
</svg>
