<svg width="30" height="30" viewBox="0 0 30 30" fill="none" xmlns="http://www.w3.org/2000/svg">
<rect width="30" height="30" rx="15" fill="#422659"/>
<path d="M11.666 20C10.7493 20 10.0077 20.75 10.0077 21.6666C10.0077 22.5833 10.7493 23.3333 11.666 23.3333C12.5827 23.3333 13.3327 22.5833 13.3327 21.6666C13.3327 20.75 12.5827 20 11.666 20ZM7.49935 6.66663C7.03911 6.66663 6.66602 7.03972 6.66602 7.49996C6.66602 7.9602 7.03911 8.33329 7.49935 8.33329H7.70021C8.08647 8.33329 8.4382 8.55575 8.60373 8.90475L11.1132 14.1956C11.251 14.4861 11.2407 14.8252 11.0856 15.1068L10.2077 16.7C10.0743 16.9333 9.99935 17.2083 9.99935 17.5C9.99935 18.4166 10.7493 19.1666 11.666 19.1666H20.8327C21.2929 19.1666 21.666 18.7935 21.666 18.3333C21.666 17.8731 21.2929 17.5 20.8327 17.5H12.016C11.9165 17.5 11.8352 17.4333 11.8134 17.3412C11.8058 17.3089 11.8118 17.2753 11.8198 17.2431C11.8284 17.2089 11.8413 17.176 11.8583 17.1452L12.2974 16.3499C12.4734 16.0312 12.8087 15.8333 13.1728 15.8333H18.791C19.416 15.8333 19.966 15.4916 20.2493 14.975L23.2327 9.56663C23.2993 9.44996 23.3327 9.30829 23.3327 9.16663C23.3327 8.70829 22.9577 8.33329 22.4993 8.33329H10.8093C10.4218 8.33329 10.0691 8.10938 9.90427 7.75865L9.6611 7.24127C9.49625 6.89054 9.14361 6.66663 8.75607 6.66663H7.49935ZM19.9993 20C19.0827 20 18.341 20.75 18.341 21.6666C18.341 22.5833 19.0827 23.3333 19.9993 23.3333C20.916 23.3333 21.666 22.5833 21.666 21.6666C21.666 20.75 20.916 20 19.9993 20Z" fill="white"/>
</svg>
