<svg width="325" height="16" viewBox="0 0 325 16" fill="none" xmlns="http://www.w3.org/2000/svg">
<path d="M0.409091 12V0.363636H4.47727C5.28788 0.363636 5.95644 0.503788 6.48295 0.784091C7.00947 1.06061 7.40152 1.43371 7.65909 1.90341C7.91667 2.36932 8.04545 2.88636 8.04545 3.45455C8.04545 3.95455 7.95644 4.36742 7.77841 4.69318C7.60417 5.01894 7.37311 5.27652 7.08523 5.46591C6.80114 5.6553 6.49242 5.79545 6.15909 5.88636V6C6.51515 6.02273 6.87311 6.14773 7.23295 6.375C7.5928 6.60227 7.89394 6.92803 8.13636 7.35227C8.37879 7.77651 8.5 8.29545 8.5 8.90909C8.5 9.49242 8.36742 10.017 8.10227 10.483C7.83712 10.9489 7.41856 11.3182 6.84659 11.5909C6.27462 11.8636 5.5303 12 4.61364 12H0.409091ZM1.81818 10.75H4.61364C5.53409 10.75 6.1875 10.572 6.57386 10.2159C6.96402 9.85606 7.15909 9.42045 7.15909 8.90909C7.15909 8.51515 7.05871 8.15152 6.85795 7.81818C6.6572 7.48106 6.37121 7.21212 6 7.01136C5.62879 6.80682 5.18939 6.70455 4.68182 6.70455H1.81818V10.75ZM1.81818 5.47727H4.43182C4.85606 5.47727 5.23864 5.39394 5.57955 5.22727C5.92424 5.06061 6.19697 4.82576 6.39773 4.52273C6.60227 4.2197 6.70455 3.86364 6.70455 3.45455C6.70455 2.94318 6.52652 2.50947 6.17045 2.15341C5.81439 1.79356 5.25 1.61364 4.47727 1.61364H1.81818V5.47727ZM11.6472 15.2727C11.4199 15.2727 11.2172 15.2538 11.0392 15.2159C10.8612 15.1818 10.7381 15.1477 10.6699 15.1136L11.0108 13.9318C11.3366 14.0152 11.6244 14.0455 11.8744 14.0227C12.1244 14 12.346 13.8883 12.5392 13.6875C12.7362 13.4905 12.9161 13.1705 13.079 12.7273L13.329 12.0455L10.1017 3.27273H11.5562L13.9653 10.2273H14.0562L16.4653 3.27273H17.9199L14.2153 13.2727C14.0487 13.7235 13.8422 14.0966 13.596 14.392C13.3498 14.6913 13.0638 14.9129 12.7381 15.0568C12.4161 15.2008 12.0525 15.2727 11.6472 15.2727ZM28.0352 12.1818C27.217 12.1818 26.5125 11.9886 25.9216 11.6023C25.3307 11.2159 24.8761 10.6837 24.558 10.0057C24.2398 9.32765 24.0807 8.55303 24.0807 7.68182C24.0807 6.79545 24.2436 6.01326 24.5693 5.33523C24.8989 4.65341 25.3572 4.12121 25.9443 3.73864C26.5352 3.35227 27.2246 3.15909 28.0125 3.15909C28.6261 3.15909 29.1792 3.27273 29.6716 3.5C30.164 3.72727 30.5674 4.04545 30.8818 4.45455C31.1962 4.86364 31.3913 5.34091 31.467 5.88636H30.1261C30.0239 5.48864 29.7966 5.13636 29.4443 4.82955C29.0958 4.51894 28.6261 4.36364 28.0352 4.36364C27.5125 4.36364 27.0542 4.5 26.6602 4.77273C26.2701 5.04167 25.9652 5.42235 25.7455 5.91477C25.5295 6.40341 25.4216 6.97727 25.4216 7.63636C25.4216 8.31061 25.5277 8.89773 25.7398 9.39773C25.9557 9.89773 26.2587 10.286 26.6489 10.5625C27.0428 10.839 27.5049 10.9773 28.0352 10.9773C28.3837 10.9773 28.7 10.9167 28.9841 10.7955C29.2682 10.6742 29.5087 10.5 29.7057 10.2727C29.9027 10.0455 30.0428 9.77273 30.1261 9.45455H31.467C31.3913 9.9697 31.2038 10.4337 30.9045 10.8466C30.6091 11.2557 30.217 11.5814 29.7284 11.8239C29.2436 12.0625 28.6792 12.1818 28.0352 12.1818ZM37.1227 12.1818C36.3348 12.1818 35.6436 11.9943 35.0489 11.6193C34.458 11.2443 33.9958 10.7197 33.6625 10.0455C33.333 9.37121 33.1682 8.58333 33.1682 7.68182C33.1682 6.77273 33.333 5.97917 33.6625 5.30114C33.9958 4.62311 34.458 4.09659 35.0489 3.72159C35.6436 3.34659 36.3348 3.15909 37.1227 3.15909C37.9106 3.15909 38.6 3.34659 39.1909 3.72159C39.7856 4.09659 40.2477 4.62311 40.5773 5.30114C40.9106 5.97917 41.0773 6.77273 41.0773 7.68182C41.0773 8.58333 40.9106 9.37121 40.5773 10.0455C40.2477 10.7197 39.7856 11.2443 39.1909 11.6193C38.6 11.9943 37.9106 12.1818 37.1227 12.1818ZM37.1227 10.9773C37.7212 10.9773 38.2136 10.8239 38.6 10.517C38.9864 10.2102 39.2723 9.80682 39.458 9.30682C39.6436 8.80682 39.7364 8.26515 39.7364 7.68182C39.7364 7.09848 39.6436 6.55492 39.458 6.05114C39.2723 5.54735 38.9864 5.14015 38.6 4.82955C38.2136 4.51894 37.7212 4.36364 37.1227 4.36364C36.5242 4.36364 36.0318 4.51894 35.6455 4.82955C35.2591 5.14015 34.9731 5.54735 34.7875 6.05114C34.6019 6.55492 34.5091 7.09848 34.5091 7.68182C34.5091 8.26515 34.6019 8.80682 34.7875 9.30682C34.9731 9.80682 35.2591 10.2102 35.6455 10.517C36.0318 10.8239 36.5242 10.9773 37.1227 10.9773ZM44.6151 6.75V12H43.2741V3.27273H44.5696V4.63636H44.6832C44.8878 4.19318 45.1984 3.83712 45.6151 3.56818C46.0317 3.29545 46.5696 3.15909 47.2287 3.15909C47.8196 3.15909 48.3366 3.2803 48.7798 3.52273C49.223 3.76136 49.5677 4.125 49.8139 4.61364C50.0601 5.09848 50.1832 5.71212 50.1832 6.45455V12H48.8423V6.54545C48.8423 5.85985 48.6643 5.32576 48.3082 4.94318C47.9522 4.55682 47.4635 4.36364 46.8423 4.36364C46.4143 4.36364 46.0317 4.45644 45.6946 4.64205C45.3613 4.82765 45.098 5.09848 44.9048 5.45455C44.7116 5.81061 44.6151 6.24242 44.6151 6.75ZM56.579 3.27273V4.40909H52.0563V3.27273H56.579ZM53.3744 1.18182H54.7153V9.5C54.7153 9.87879 54.7703 10.1629 54.8801 10.3523C54.9938 10.5379 55.1377 10.6629 55.3119 10.7273C55.49 10.7879 55.6775 10.8182 55.8744 10.8182C56.0222 10.8182 56.1434 10.8106 56.2381 10.7955C56.3328 10.7765 56.4085 10.7614 56.4653 10.75L56.7381 11.9545C56.6472 11.9886 56.5203 12.0227 56.3574 12.0568C56.1945 12.0947 55.9881 12.1136 55.7381 12.1136C55.3593 12.1136 54.9881 12.0322 54.6244 11.8693C54.2646 11.7064 53.9653 11.4583 53.7267 11.125C53.4919 10.7917 53.3744 10.3712 53.3744 9.86364V1.18182ZM58.746 12V3.27273H60.0869V12H58.746ZM59.4278 1.81818C59.1665 1.81818 58.9411 1.72917 58.7517 1.55114C58.5661 1.37311 58.4733 1.15909 58.4733 0.909091C58.4733 0.659091 58.5661 0.445076 58.7517 0.267045C58.9411 0.089015 59.1665 0 59.4278 0C59.6892 0 59.9127 0.089015 60.0983 0.267045C60.2877 0.445076 60.3824 0.659091 60.3824 0.909091C60.3824 1.15909 60.2877 1.37311 60.0983 1.55114C59.9127 1.72917 59.6892 1.81818 59.4278 1.81818ZM64.0338 6.75V12H62.6929V3.27273H63.9884V4.63636H64.102C64.3065 4.19318 64.6171 3.83712 65.0338 3.56818C65.4505 3.29545 65.9884 3.15909 66.6474 3.15909C67.2384 3.15909 67.7554 3.2803 68.1986 3.52273C68.6418 3.76136 68.9865 4.125 69.2327 4.61364C69.4789 5.09848 69.602 5.71212 69.602 6.45455V12H68.2611V6.54545C68.2611 5.85985 68.0831 5.32576 67.727 4.94318C67.3709 4.55682 66.8823 4.36364 66.2611 4.36364C65.833 4.36364 65.4505 4.45644 65.1134 4.64205C64.78 4.82765 64.5168 5.09848 64.3236 5.45455C64.1304 5.81061 64.0338 6.24242 64.0338 6.75ZM77.7023 8.43182V3.27273H79.0432V12H77.7023V10.5227H77.6114C77.4068 10.9659 77.0886 11.3428 76.6568 11.6534C76.225 11.9602 75.6795 12.1136 75.0205 12.1136C74.475 12.1136 73.9902 11.9943 73.5659 11.7557C73.1417 11.5133 72.8083 11.1496 72.5659 10.6648C72.3235 10.1761 72.2023 9.56061 72.2023 8.81818V3.27273H73.5432V8.72727C73.5432 9.36364 73.7212 9.87121 74.0773 10.25C74.4371 10.6288 74.8955 10.8182 75.4523 10.8182C75.7856 10.8182 76.1246 10.733 76.4693 10.5625C76.8178 10.392 77.1095 10.1307 77.3443 9.77841C77.583 9.42614 77.7023 8.97727 77.7023 8.43182ZM81.6491 12V3.27273H82.9901V12H81.6491ZM82.331 1.81818C82.0696 1.81818 81.8442 1.72917 81.6548 1.55114C81.4692 1.37311 81.3764 1.15909 81.3764 0.909091C81.3764 0.659091 81.4692 0.445076 81.6548 0.267045C81.8442 0.089015 82.0696 0 82.331 0C82.5923 0 82.8158 0.089015 83.0014 0.267045C83.1908 0.445076 83.2855 0.659091 83.2855 0.909091C83.2855 1.15909 83.1908 1.37311 83.0014 1.55114C82.8158 1.72917 82.5923 1.81818 82.331 1.81818ZM86.9369 6.75V12H85.596V3.27273H86.8915V4.63636H87.0051C87.2097 4.19318 87.5203 3.83712 87.9369 3.56818C88.3536 3.29545 88.8915 3.15909 89.5506 3.15909C90.1415 3.15909 90.6585 3.2803 91.1017 3.52273C91.5449 3.76136 91.8896 4.125 92.1358 4.61364C92.382 5.09848 92.5051 5.71212 92.5051 6.45455V12H91.1642V6.54545C91.1642 5.85985 90.9862 5.32576 90.6301 4.94318C90.2741 4.55682 89.7854 4.36364 89.1642 4.36364C88.7362 4.36364 88.3536 4.45644 88.0165 4.64205C87.6831 4.82765 87.4199 5.09848 87.2267 5.45455C87.0335 5.81061 86.9369 6.24242 86.9369 6.75ZM98.6281 15.4545C97.9804 15.4545 97.4236 15.3712 96.9577 15.2045C96.4918 15.0417 96.1035 14.8258 95.7929 14.5568C95.4861 14.2917 95.2418 14.0076 95.0599 13.7045L96.1281 12.9545C96.2493 13.1136 96.4027 13.2955 96.5884 13.5C96.774 13.7083 97.0277 13.8883 97.3497 14.0398C97.6755 14.1951 98.1016 14.2727 98.6281 14.2727C99.3327 14.2727 99.9141 14.1023 100.372 13.7614C100.831 13.4205 101.06 12.8864 101.06 12.1591V10.3864H100.946C100.848 10.5455 100.708 10.7424 100.526 10.9773C100.348 11.2083 100.09 11.4148 99.7531 11.5966C99.4198 11.7746 98.969 11.8636 98.4009 11.8636C97.6963 11.8636 97.0637 11.697 96.5031 11.3636C95.9463 11.0303 95.505 10.5455 95.1793 9.90909C94.8573 9.27273 94.6963 8.5 94.6963 7.59091C94.6963 6.69697 94.8535 5.91856 95.1679 5.25568C95.4823 4.58901 95.9198 4.07386 96.4804 3.71023C97.041 3.3428 97.6887 3.15909 98.4236 3.15909C98.9918 3.15909 99.4425 3.25379 99.7759 3.44318C100.113 3.62879 100.371 3.84091 100.549 4.07955C100.73 4.31439 100.871 4.50758 100.969 4.65909H101.105V3.27273H102.401V12.25C102.401 13 102.23 13.6098 101.889 14.0795C101.552 14.553 101.098 14.8996 100.526 15.1193C99.9577 15.3428 99.3251 15.4545 98.6281 15.4545ZM98.5827 10.6591C99.1206 10.6591 99.5751 10.536 99.9463 10.2898C100.318 10.0436 100.6 9.68939 100.793 9.22727C100.986 8.76515 101.083 8.21212 101.083 7.56818C101.083 6.93939 100.988 6.38447 100.799 5.90341C100.609 5.42235 100.329 5.04545 99.9577 4.77273C99.5865 4.5 99.1281 4.36364 98.5827 4.36364C98.0145 4.36364 97.541 4.50758 97.1622 4.79545C96.7872 5.08333 96.505 5.4697 96.3156 5.95455C96.13 6.43939 96.0372 6.97727 96.0372 7.56818C96.0372 8.17424 96.1319 8.71023 96.3213 9.17614C96.5145 9.63826 96.7986 10.0019 97.1736 10.267C97.5524 10.5284 98.0221 10.6591 98.5827 10.6591ZM107.005 10.4091L106.914 11.0227C106.85 11.4545 106.752 11.9167 106.619 12.4091C106.49 12.9015 106.356 13.3655 106.216 13.8011C106.075 14.2367 105.96 14.5833 105.869 14.8409H104.846C104.896 14.5985 104.96 14.2784 105.039 13.8807C105.119 13.483 105.199 13.0379 105.278 12.5455C105.361 12.0568 105.43 11.5568 105.483 11.0455L105.551 10.4091H107.005ZM115.153 15.2727C114.926 15.2727 114.723 15.2538 114.545 15.2159C114.367 15.1818 114.244 15.1477 114.176 15.1136L114.517 13.9318C114.843 14.0152 115.131 14.0455 115.381 14.0227C115.631 14 115.852 13.8883 116.045 13.6875C116.242 13.4905 116.422 13.1705 116.585 12.7273L116.835 12.0455L113.608 3.27273H115.062L117.472 10.2273H117.562L119.972 3.27273H121.426L117.722 13.2727C117.555 13.7235 117.348 14.0966 117.102 14.392C116.856 14.6913 116.57 14.9129 116.244 15.0568C115.922 15.2008 115.559 15.2727 115.153 15.2727ZM126.579 12.1818C125.791 12.1818 125.1 11.9943 124.505 11.6193C123.914 11.2443 123.452 10.7197 123.119 10.0455C122.789 9.37121 122.624 8.58333 122.624 7.68182C122.624 6.77273 122.789 5.97917 123.119 5.30114C123.452 4.62311 123.914 4.09659 124.505 3.72159C125.1 3.34659 125.791 3.15909 126.579 3.15909C127.367 3.15909 128.056 3.34659 128.647 3.72159C129.242 4.09659 129.704 4.62311 130.034 5.30114C130.367 5.97917 130.534 6.77273 130.534 7.68182C130.534 8.58333 130.367 9.37121 130.034 10.0455C129.704 10.7197 129.242 11.2443 128.647 11.6193C128.056 11.9943 127.367 12.1818 126.579 12.1818ZM126.579 10.9773C127.177 10.9773 127.67 10.8239 128.056 10.517C128.443 10.2102 128.729 9.80682 128.914 9.30682C129.1 8.80682 129.193 8.26515 129.193 7.68182C129.193 7.09848 129.1 6.55492 128.914 6.05114C128.729 5.54735 128.443 5.14015 128.056 4.82955C127.67 4.51894 127.177 4.36364 126.579 4.36364C125.98 4.36364 125.488 4.51894 125.102 4.82955C124.715 5.14015 124.429 5.54735 124.244 6.05114C124.058 6.55492 123.965 7.09848 123.965 7.68182C123.965 8.26515 124.058 8.80682 124.244 9.30682C124.429 9.80682 124.715 10.2102 125.102 10.517C125.488 10.8239 125.98 10.9773 126.579 10.9773ZM138.23 8.43182V3.27273H139.571V12H138.23V10.5227H138.139C137.935 10.9659 137.617 11.3428 137.185 11.6534C136.753 11.9602 136.208 12.1136 135.549 12.1136C135.003 12.1136 134.518 11.9943 134.094 11.7557C133.67 11.5133 133.336 11.1496 133.094 10.6648C132.852 10.1761 132.73 9.56061 132.73 8.81818V3.27273H134.071V8.72727C134.071 9.36364 134.249 9.87121 134.605 10.25C134.965 10.6288 135.424 10.8182 135.98 10.8182C136.314 10.8182 136.653 10.733 136.997 10.5625C137.346 10.392 137.638 10.1307 137.872 9.77841C138.111 9.42614 138.23 8.97727 138.23 8.43182ZM149.395 12.2045C148.842 12.2045 148.341 12.1004 147.89 11.892C147.439 11.6799 147.081 11.375 146.816 10.9773C146.551 10.5758 146.418 10.0909 146.418 9.52273C146.418 9.02273 146.517 8.61742 146.714 8.30682C146.911 7.99242 147.174 7.74621 147.503 7.56818C147.833 7.39015 148.197 7.25758 148.594 7.17045C148.996 7.07955 149.399 7.00758 149.805 6.95455C150.335 6.88636 150.765 6.83523 151.094 6.80114C151.428 6.76326 151.67 6.70076 151.822 6.61364C151.977 6.52652 152.055 6.375 152.055 6.15909V6.11364C152.055 5.55303 151.901 5.11742 151.594 4.80682C151.291 4.49621 150.831 4.34091 150.214 4.34091C149.573 4.34091 149.072 4.48106 148.708 4.76136C148.344 5.04167 148.089 5.34091 147.941 5.65909L146.668 5.20455C146.895 4.67424 147.198 4.26136 147.577 3.96591C147.96 3.66667 148.377 3.45833 148.827 3.34091C149.282 3.2197 149.729 3.15909 150.168 3.15909C150.448 3.15909 150.77 3.19318 151.134 3.26136C151.502 3.32576 151.856 3.46023 152.197 3.66477C152.541 3.86932 152.827 4.17803 153.055 4.59091C153.282 5.00379 153.395 5.55682 153.395 6.25V12H152.055V10.8182H151.986C151.895 11.0076 151.744 11.2102 151.532 11.4261C151.32 11.642 151.038 11.8258 150.685 11.9773C150.333 12.1288 149.903 12.2045 149.395 12.2045ZM149.6 11C150.13 11 150.577 10.8958 150.941 10.6875C151.308 10.4792 151.585 10.2102 151.77 9.88068C151.96 9.55114 152.055 9.20455 152.055 8.84091V7.61364C151.998 7.68182 151.873 7.74432 151.68 7.80114C151.49 7.85417 151.27 7.90151 151.02 7.94318C150.774 7.98106 150.534 8.01515 150.299 8.04545C150.068 8.07197 149.88 8.0947 149.736 8.11364C149.388 8.15909 149.062 8.23295 148.759 8.33523C148.46 8.43371 148.217 8.58333 148.032 8.78409C147.85 8.98106 147.759 9.25 147.759 9.59091C147.759 10.0568 147.931 10.4091 148.276 10.6477C148.625 10.8826 149.066 11 149.6 11ZM159.516 15.4545C158.868 15.4545 158.311 15.3712 157.845 15.2045C157.379 15.0417 156.991 14.8258 156.68 14.5568C156.374 14.2917 156.129 14.0076 155.947 13.7045L157.016 12.9545C157.137 13.1136 157.29 13.2955 157.476 13.5C157.661 13.7083 157.915 13.8883 158.237 14.0398C158.563 14.1951 158.989 14.2727 159.516 14.2727C160.22 14.2727 160.802 14.1023 161.26 13.7614C161.718 13.4205 161.947 12.8864 161.947 12.1591V10.3864H161.834C161.735 10.5455 161.595 10.7424 161.413 10.9773C161.235 11.2083 160.978 11.4148 160.641 11.5966C160.307 11.7746 159.857 11.8636 159.288 11.8636C158.584 11.8636 157.951 11.697 157.391 11.3636C156.834 11.0303 156.393 10.5455 156.067 9.90909C155.745 9.27273 155.584 8.5 155.584 7.59091C155.584 6.69697 155.741 5.91856 156.055 5.25568C156.37 4.58901 156.807 4.07386 157.368 3.71023C157.929 3.3428 158.576 3.15909 159.311 3.15909C159.879 3.15909 160.33 3.25379 160.663 3.44318C161 3.62879 161.258 3.84091 161.436 4.07955C161.618 4.31439 161.758 4.50758 161.857 4.65909H161.993V3.27273H163.288V12.25C163.288 13 163.118 13.6098 162.777 14.0795C162.44 14.553 161.985 14.8996 161.413 15.1193C160.845 15.3428 160.213 15.4545 159.516 15.4545ZM159.47 10.6591C160.008 10.6591 160.463 10.536 160.834 10.2898C161.205 10.0436 161.487 9.68939 161.68 9.22727C161.874 8.76515 161.97 8.21212 161.97 7.56818C161.97 6.93939 161.875 6.38447 161.686 5.90341C161.497 5.42235 161.216 5.04545 160.845 4.77273C160.474 4.5 160.016 4.36364 159.47 4.36364C158.902 4.36364 158.429 4.50758 158.05 4.79545C157.675 5.08333 157.393 5.4697 157.203 5.95455C157.018 6.43939 156.925 6.97727 156.925 7.56818C156.925 8.17424 157.019 8.71023 157.209 9.17614C157.402 9.63826 157.686 10.0019 158.061 10.267C158.44 10.5284 158.91 10.6591 159.47 10.6591ZM165.893 12V3.27273H167.188V4.59091H167.279C167.438 4.15909 167.726 3.80871 168.143 3.53977C168.56 3.27083 169.029 3.13636 169.552 3.13636C169.65 3.13636 169.774 3.13826 169.921 3.14205C170.069 3.14583 170.181 3.15152 170.257 3.15909V4.52273C170.211 4.51136 170.107 4.49432 169.944 4.47159C169.785 4.44508 169.616 4.43182 169.438 4.43182C169.014 4.43182 168.635 4.52083 168.302 4.69886C167.972 4.87311 167.711 5.11553 167.518 5.42614C167.328 5.73295 167.234 6.08333 167.234 6.47727V12H165.893ZM175.389 12.1818C174.549 12.1818 173.823 11.9962 173.213 11.625C172.607 11.25 172.139 10.7273 171.81 10.0568C171.484 9.38258 171.321 8.59848 171.321 7.70455C171.321 6.81061 171.484 6.02273 171.81 5.34091C172.139 4.6553 172.598 4.12121 173.185 3.73864C173.776 3.35227 174.465 3.15909 175.253 3.15909C175.708 3.15909 176.157 3.23485 176.6 3.38636C177.043 3.53788 177.446 3.78409 177.81 4.125C178.174 4.46212 178.463 4.90909 178.679 5.46591C178.895 6.02273 179.003 6.70833 179.003 7.52273V8.09091H172.276V6.93182H177.639C177.639 6.43939 177.541 6 177.344 5.61364C177.151 5.22727 176.874 4.92235 176.514 4.69886C176.158 4.47538 175.738 4.36364 175.253 4.36364C174.719 4.36364 174.257 4.49621 173.867 4.76136C173.48 5.02273 173.183 5.36364 172.975 5.78409C172.766 6.20455 172.662 6.6553 172.662 7.13636V7.90909C172.662 8.56818 172.776 9.12689 173.003 9.58523C173.234 10.0398 173.554 10.3864 173.963 10.625C174.372 10.8598 174.848 10.9773 175.389 10.9773C175.742 10.9773 176.06 10.928 176.344 10.8295C176.632 10.7273 176.88 10.5758 177.088 10.375C177.297 10.1705 177.458 9.91667 177.571 9.61364L178.867 9.97727C178.73 10.4167 178.501 10.803 178.179 11.1364C177.857 11.4659 177.46 11.7235 176.986 11.9091C176.513 12.0909 175.98 12.1818 175.389 12.1818ZM184.852 12.1818C184.011 12.1818 183.286 11.9962 182.676 11.625C182.07 11.25 181.602 10.7273 181.272 10.0568C180.947 9.38258 180.784 8.59848 180.784 7.70455C180.784 6.81061 180.947 6.02273 181.272 5.34091C181.602 4.6553 182.06 4.12121 182.647 3.73864C183.238 3.35227 183.928 3.15909 184.716 3.15909C185.17 3.15909 185.619 3.23485 186.062 3.38636C186.505 3.53788 186.909 3.78409 187.272 4.125C187.636 4.46212 187.926 4.90909 188.142 5.46591C188.358 6.02273 188.466 6.70833 188.466 7.52273V8.09091H181.738V6.93182H187.102C187.102 6.43939 187.004 6 186.807 5.61364C186.613 5.22727 186.337 4.92235 185.977 4.69886C185.621 4.47538 185.2 4.36364 184.716 4.36364C184.182 4.36364 183.719 4.49621 183.329 4.76136C182.943 5.02273 182.646 5.36364 182.437 5.78409C182.229 6.20455 182.125 6.6553 182.125 7.13636V7.90909C182.125 8.56818 182.238 9.12689 182.466 9.58523C182.697 10.0398 183.017 10.3864 183.426 10.625C183.835 10.8598 184.31 10.9773 184.852 10.9773C185.204 10.9773 185.522 10.928 185.807 10.8295C186.094 10.7273 186.343 10.5758 186.551 10.375C186.759 10.1705 186.92 9.91667 187.034 9.61364L188.329 9.97727C188.193 10.4167 187.964 10.803 187.642 11.1364C187.32 11.4659 186.922 11.7235 186.449 11.9091C185.975 12.0909 185.443 12.1818 184.852 12.1818ZM199.101 3.27273V4.40909H194.578V3.27273H199.101ZM195.896 1.18182H197.237V9.5C197.237 9.87879 197.292 10.1629 197.402 10.3523C197.516 10.5379 197.66 10.6629 197.834 10.7273C198.012 10.7879 198.199 10.8182 198.396 10.8182C198.544 10.8182 198.665 10.8106 198.76 10.7955C198.855 10.7765 198.93 10.7614 198.987 10.75L199.26 11.9545C199.169 11.9886 199.042 12.0227 198.879 12.0568C198.716 12.0947 198.51 12.1136 198.26 12.1136C197.881 12.1136 197.51 12.0322 197.146 11.8693C196.786 11.7064 196.487 11.4583 196.249 11.125C196.014 10.7917 195.896 10.3712 195.896 9.86364V1.18182ZM204.72 12.1818C203.932 12.1818 203.24 11.9943 202.646 11.6193C202.055 11.2443 201.593 10.7197 201.259 10.0455C200.93 9.37121 200.765 8.58333 200.765 7.68182C200.765 6.77273 200.93 5.97917 201.259 5.30114C201.593 4.62311 202.055 4.09659 202.646 3.72159C203.24 3.34659 203.932 3.15909 204.72 3.15909C205.507 3.15909 206.197 3.34659 206.788 3.72159C207.382 4.09659 207.845 4.62311 208.174 5.30114C208.507 5.97917 208.674 6.77273 208.674 7.68182C208.674 8.58333 208.507 9.37121 208.174 10.0455C207.845 10.7197 207.382 11.2443 206.788 11.6193C206.197 11.9943 205.507 12.1818 204.72 12.1818ZM204.72 10.9773C205.318 10.9773 205.811 10.8239 206.197 10.517C206.583 10.2102 206.869 9.80682 207.055 9.30682C207.24 8.80682 207.333 8.26515 207.333 7.68182C207.333 7.09848 207.24 6.55492 207.055 6.05114C206.869 5.54735 206.583 5.14015 206.197 4.82955C205.811 4.51894 205.318 4.36364 204.72 4.36364C204.121 4.36364 203.629 4.51894 203.242 4.82955C202.856 5.14015 202.57 5.54735 202.384 6.05114C202.199 6.55492 202.106 7.09848 202.106 7.68182C202.106 8.26515 202.199 8.80682 202.384 9.30682C202.57 9.80682 202.856 10.2102 203.242 10.517C203.629 10.8239 204.121 10.9773 204.72 10.9773ZM281.29 15.2727V3.27273H282.585V4.65909H282.744C282.843 4.50758 282.979 4.31439 283.153 4.07955C283.331 3.84091 283.585 3.62879 283.915 3.44318C284.248 3.25379 284.699 3.15909 285.267 3.15909C286.002 3.15909 286.65 3.3428 287.21 3.71023C287.771 4.07765 288.208 4.59848 288.523 5.27273C288.837 5.94697 288.994 6.74242 288.994 7.65909C288.994 8.58333 288.837 9.38447 288.523 10.0625C288.208 10.7367 287.773 11.2595 287.216 11.6307C286.659 11.9981 286.017 12.1818 285.29 12.1818C284.729 12.1818 284.28 12.089 283.943 11.9034C283.606 11.714 283.347 11.5 283.165 11.2614C282.983 11.0189 282.843 10.8182 282.744 10.6591H282.631V15.2727H281.29ZM282.608 7.63636C282.608 8.29545 282.705 8.87689 282.898 9.38068C283.091 9.88068 283.373 10.2727 283.744 10.5568C284.116 10.8371 284.57 10.9773 285.108 10.9773C285.669 10.9773 286.136 10.8295 286.511 10.5341C286.89 10.2348 287.174 9.83333 287.364 9.32955C287.557 8.82197 287.653 8.25758 287.653 7.63636C287.653 7.02273 287.559 6.4697 287.369 5.97727C287.184 5.48106 286.902 5.08902 286.523 4.80114C286.148 4.50947 285.676 4.36364 285.108 4.36364C284.563 4.36364 284.104 4.50189 283.733 4.77841C283.362 5.05114 283.081 5.43371 282.892 5.92614C282.703 6.41477 282.608 6.98485 282.608 7.63636ZM294.735 12.1818C293.947 12.1818 293.256 11.9943 292.661 11.6193C292.07 11.2443 291.608 10.7197 291.275 10.0455C290.945 9.37121 290.781 8.58333 290.781 7.68182C290.781 6.77273 290.945 5.97917 291.275 5.30114C291.608 4.62311 292.07 4.09659 292.661 3.72159C293.256 3.34659 293.947 3.15909 294.735 3.15909C295.523 3.15909 296.212 3.34659 296.803 3.72159C297.398 4.09659 297.86 4.62311 298.19 5.30114C298.523 5.97917 298.69 6.77273 298.69 7.68182C298.69 8.58333 298.523 9.37121 298.19 10.0455C297.86 10.7197 297.398 11.2443 296.803 11.6193C296.212 11.9943 295.523 12.1818 294.735 12.1818ZM294.735 10.9773C295.334 10.9773 295.826 10.8239 296.212 10.517C296.599 10.2102 296.885 9.80682 297.07 9.30682C297.256 8.80682 297.349 8.26515 297.349 7.68182C297.349 7.09848 297.256 6.55492 297.07 6.05114C296.885 5.54735 296.599 5.14015 296.212 4.82955C295.826 4.51894 295.334 4.36364 294.735 4.36364C294.137 4.36364 293.644 4.51894 293.258 4.82955C292.872 5.14015 292.586 5.54735 292.4 6.05114C292.214 6.55492 292.122 7.09848 292.122 7.68182C292.122 8.26515 292.214 8.80682 292.4 9.30682C292.586 9.80682 292.872 10.2102 293.258 10.517C293.644 10.8239 294.137 10.9773 294.735 10.9773ZM302.228 0.363636V12H300.887V0.363636H302.228ZM304.834 12V3.27273H306.174V12H304.834ZM305.515 1.81818C305.254 1.81818 305.029 1.72917 304.839 1.55114C304.654 1.37311 304.561 1.15909 304.561 0.909091C304.561 0.659091 304.654 0.445076 304.839 0.267045C305.029 0.089015 305.254 0 305.515 0C305.777 0 306 0.089015 306.186 0.267045C306.375 0.445076 306.47 0.659091 306.47 0.909091C306.47 1.15909 306.375 1.37311 306.186 1.55114C306 1.72917 305.777 1.81818 305.515 1.81818ZM312.326 12.1818C311.508 12.1818 310.803 11.9886 310.212 11.6023C309.621 11.2159 309.167 10.6837 308.849 10.0057C308.53 9.32765 308.371 8.55303 308.371 7.68182C308.371 6.79545 308.534 6.01326 308.86 5.33523C309.189 4.65341 309.648 4.12121 310.235 3.73864C310.826 3.35227 311.515 3.15909 312.303 3.15909C312.917 3.15909 313.47 3.27273 313.962 3.5C314.455 3.72727 314.858 4.04545 315.172 4.45455C315.487 4.86364 315.682 5.34091 315.758 5.88636H314.417C314.314 5.48864 314.087 5.13636 313.735 4.82955C313.386 4.51894 312.917 4.36364 312.326 4.36364C311.803 4.36364 311.345 4.5 310.951 4.77273C310.561 5.04167 310.256 5.42235 310.036 5.91477C309.82 6.40341 309.712 6.97727 309.712 7.63636C309.712 8.31061 309.818 8.89773 310.03 9.39773C310.246 9.89773 310.549 10.286 310.939 10.5625C311.333 10.839 311.796 10.9773 312.326 10.9773C312.674 10.9773 312.991 10.9167 313.275 10.7955C313.559 10.6742 313.799 10.5 313.996 10.2727C314.193 10.0455 314.333 9.77273 314.417 9.45455H315.758C315.682 9.9697 315.494 10.4337 315.195 10.8466C314.9 11.2557 314.508 11.5814 314.019 11.8239C313.534 12.0625 312.97 12.1818 312.326 12.1818ZM318.732 15.2727C318.504 15.2727 318.302 15.2538 318.124 15.2159C317.946 15.1818 317.822 15.1477 317.754 15.1136L318.095 13.9318C318.421 14.0152 318.709 14.0455 318.959 14.0227C319.209 14 319.43 13.8883 319.624 13.6875C319.821 13.4905 320 13.1705 320.163 12.7273L320.413 12.0455L317.186 3.27273H318.641L321.05 10.2273H321.141L323.55 3.27273H325.004L321.3 13.2727C321.133 13.7235 320.927 14.0966 320.68 14.392C320.434 14.6913 320.148 14.9129 319.822 15.0568C319.5 15.2008 319.137 15.2727 318.732 15.2727Z" fill="#495F6A"/>
<path d="M215.703 12V0.363636H219.771C220.582 0.363636 221.25 0.503788 221.777 0.784091C222.303 1.06061 222.695 1.43371 222.953 1.90341C223.21 2.36932 223.339 2.88636 223.339 3.45455C223.339 3.95455 223.25 4.36742 223.072 4.69318C222.898 5.01894 222.667 5.27652 222.379 5.46591C222.095 5.6553 221.786 5.79545 221.453 5.88636V6C221.809 6.02273 222.167 6.14773 222.527 6.375C222.887 6.60227 223.188 6.92803 223.43 7.35227C223.673 7.77651 223.794 8.29545 223.794 8.90909C223.794 9.49242 223.661 10.017 223.396 10.483C223.131 10.9489 222.712 11.3182 222.14 11.5909C221.568 11.8636 220.824 12 219.907 12H215.703ZM217.112 10.75H219.907C220.828 10.75 221.481 10.572 221.868 10.2159C222.258 9.85606 222.453 9.42045 222.453 8.90909C222.453 8.51515 222.352 8.15152 222.152 7.81818C221.951 7.48106 221.665 7.21212 221.294 7.01136C220.923 6.80682 220.483 6.70455 219.976 6.70455H217.112V10.75ZM217.112 5.47727H219.726C220.15 5.47727 220.532 5.39394 220.873 5.22727C221.218 5.06061 221.491 4.82576 221.691 4.52273C221.896 4.2197 221.998 3.86364 221.998 3.45455C221.998 2.94318 221.82 2.50947 221.464 2.15341C221.108 1.79356 220.544 1.61364 219.771 1.61364H217.112V5.47727ZM231.577 8.43182V3.27273H232.918V12H231.577V10.5227H231.486C231.282 10.9659 230.964 11.3428 230.532 11.6534C230.1 11.9602 229.555 12.1136 228.895 12.1136C228.35 12.1136 227.865 11.9943 227.441 11.7557C227.017 11.5133 226.683 11.1496 226.441 10.6648C226.198 10.1761 226.077 9.56061 226.077 8.81818V3.27273H227.418V8.72727C227.418 9.36364 227.596 9.87121 227.952 10.25C228.312 10.6288 228.77 10.8182 229.327 10.8182C229.661 10.8182 230 10.733 230.344 10.5625C230.693 10.392 230.984 10.1307 231.219 9.77841C231.458 9.42614 231.577 8.97727 231.577 8.43182ZM236.388 15.2727C236.161 15.2727 235.958 15.2538 235.78 15.2159C235.602 15.1818 235.479 15.1477 235.411 15.1136L235.751 13.9318C236.077 14.0152 236.365 14.0455 236.615 14.0227C236.865 14 237.087 13.8883 237.28 13.6875C237.477 13.4905 237.657 13.1705 237.82 12.7273L238.07 12.0455L234.842 3.27273H236.297L238.706 10.2273H238.797L241.206 3.27273H242.661L238.956 13.2727C238.789 13.7235 238.583 14.0966 238.337 14.392C238.09 14.6913 237.804 14.9129 237.479 15.0568C237.157 15.2008 236.793 15.2727 236.388 15.2727ZM245.921 6.75V12H244.58V3.27273H245.876V4.63636H245.989C246.194 4.19318 246.505 3.83712 246.921 3.56818C247.338 3.29545 247.876 3.15909 248.535 3.15909C249.126 3.15909 249.643 3.2803 250.086 3.52273C250.529 3.76136 250.874 4.125 251.12 4.61364C251.366 5.09848 251.489 5.71212 251.489 6.45455V12H250.149V6.54545C250.149 5.85985 249.971 5.32576 249.614 4.94318C249.258 4.55682 248.77 4.36364 248.149 4.36364C247.721 4.36364 247.338 4.45644 247.001 4.64205C246.668 4.82765 246.404 5.09848 246.211 5.45455C246.018 5.81061 245.921 6.24242 245.921 6.75ZM257.635 12.1818C256.847 12.1818 256.156 11.9943 255.561 11.6193C254.97 11.2443 254.508 10.7197 254.175 10.0455C253.845 9.37121 253.681 8.58333 253.681 7.68182C253.681 6.77273 253.845 5.97917 254.175 5.30114C254.508 4.62311 254.97 4.09659 255.561 3.72159C256.156 3.34659 256.847 3.15909 257.635 3.15909C258.423 3.15909 259.113 3.34659 259.703 3.72159C260.298 4.09659 260.76 4.62311 261.09 5.30114C261.423 5.97917 261.59 6.77273 261.59 7.68182C261.59 8.58333 261.423 9.37121 261.09 10.0455C260.76 10.7197 260.298 11.2443 259.703 11.6193C259.113 11.9943 258.423 12.1818 257.635 12.1818ZM257.635 10.9773C258.234 10.9773 258.726 10.8239 259.113 10.517C259.499 10.2102 259.785 9.80682 259.97 9.30682C260.156 8.80682 260.249 8.26515 260.249 7.68182C260.249 7.09848 260.156 6.55492 259.97 6.05114C259.785 5.54735 259.499 5.14015 259.113 4.82955C258.726 4.51894 258.234 4.36364 257.635 4.36364C257.037 4.36364 256.544 4.51894 256.158 4.82955C255.772 5.14015 255.486 5.54735 255.3 6.05114C255.114 6.55492 255.022 7.09848 255.022 7.68182C255.022 8.26515 255.114 8.80682 255.3 9.30682C255.486 9.80682 255.772 10.2102 256.158 10.517C256.544 10.8239 257.037 10.9773 257.635 10.9773ZM265.467 12L262.808 3.27273H264.217L266.103 9.95455H266.194L268.058 3.27273H269.49L271.331 9.93182H271.422L273.308 3.27273H274.717L272.058 12H270.74L268.831 5.29545H268.694L266.785 12H265.467Z" fill="#67517A"/>
</svg>
