<svg width="22" height="22" viewBox="0 0 22 22" fill="none" xmlns="http://www.w3.org/2000/svg">
<path d="M18.3327 11C18.3327 10.4937 17.9223 10.0833 17.416 10.0833H9.59107C8.70016 10.0833 8.25399 9.00615 8.88396 8.37619L11.6502 5.60996C12.0093 5.25089 12.0082 4.6684 11.6479 4.31059C11.2893 3.95457 10.7104 3.9556 10.3531 4.31288L4.37312 10.2929C3.9826 10.6834 3.9826 11.3165 4.37312 11.7071L10.3528 17.6868C10.7099 18.0438 11.2888 18.0438 11.6459 17.6868C12.0027 17.3299 12.003 16.7514 11.6465 16.3943L8.88027 13.6231C8.25117 12.9929 8.69754 11.9166 9.58801 11.9166H17.416C17.9223 11.9166 18.3327 11.5062 18.3327 11Z" fill="#495F6A"/>
</svg>
