<svg width="15" height="14" viewBox="0 0 15 14" fill="none" xmlns="http://www.w3.org/2000/svg">
<path d="M14.3327 6.99996C14.3327 6.4937 13.9223 6.08329 13.416 6.08329H5.59107C4.70016 6.08329 4.25399 5.00615 4.88396 4.37619L7.65018 1.60996C8.00925 1.25089 8.00822 0.668396 7.64788 0.310592C7.28934 -0.0454281 6.71038 -0.044405 6.3531 0.31288L0.373122 6.29285C-0.0174025 6.68338 -0.0174019 7.31654 0.373122 7.70707L6.35281 13.6868C6.70988 14.0438 7.28881 14.0438 7.64589 13.6868C8.00274 13.3299 8.003 12.7514 7.64647 12.3943L4.88027 9.6231C4.25117 8.99288 4.69754 7.91663 5.58801 7.91663H13.416C13.9223 7.91663 14.3327 7.50622 14.3327 6.99996Z" fill="#495F6A"/>
</svg>
