<svg width="110" height="30" viewBox="0 0 110 30" fill="none" xmlns="http://www.w3.org/2000/svg">
<g clip-path="url(#clip0_2593_272)">
<path opacity="0.9" d="M18.8992 9.43708C18.7613 9.24973 18.5232 9.16465 18.2981 9.22266C17.7223 9.3709 16.6154 9.78426 15.799 10.8752C15.2082 11.6654 13.9582 11.1116 14.1443 10.1426C14.2285 9.70305 14.3939 9.21407 14.6728 8.67696C15.9657 6.18735 13.9853 4.28469 13.8439 4.15364C13.8384 4.14848 13.8328 4.14419 13.8263 4.13946C13.7602 4.09434 13.361 3.84555 12.9884 4.14633C12.9064 4.21251 10.9315 5.7654 8.93176 8.15661C6.77086 10.7407 4.81836 14.0248 4.81836 17.4061C4.81836 22.1447 8.67352 25.9994 13.4117 25.9994C18.1498 25.9994 22.005 22.1442 22.005 17.4061C22.005 14.5568 20.618 11.778 18.8979 9.43708H18.8992Z" fill="#422659"/>
<path opacity="0.9" d="M6.03129 8.14062H2.19805C1.61189 8.14062 1.13672 8.6158 1.13672 9.20195C1.13672 9.78811 1.61189 10.2633 2.19805 10.2633H6.03129C6.61744 10.2633 7.09262 9.78811 7.09262 9.20195C7.09262 8.6158 6.61744 8.14062 6.03129 8.14062Z" fill="#422659"/>
<path opacity="0.9" d="M3.75746 12.3828H1.06719C0.481032 12.3828 0.00585938 12.858 0.00585938 13.4441C0.00585938 14.0303 0.481032 14.5055 1.06719 14.5055H3.75746C4.34362 14.5055 4.81879 14.0303 4.81879 13.4441C4.81879 12.858 4.34362 12.3828 3.75746 12.3828Z" fill="#422659"/>
<path opacity="0.9" d="M3.22242 16.6289H2.84258C2.25642 16.6289 1.78125 17.1041 1.78125 17.6902C1.78125 18.2764 2.25642 18.7516 2.84258 18.7516H3.22242C3.80858 18.7516 4.28375 18.2764 4.28375 17.6902C4.28375 17.1041 3.80858 16.6289 3.22242 16.6289Z" fill="#422659"/>
<path opacity="0.9" d="M4.37602 20.8594H1.47734C0.891188 20.8594 0.416016 21.3345 0.416016 21.9207C0.416016 22.5069 0.891188 22.982 1.47734 22.982H4.37602C4.96217 22.982 5.43734 22.5069 5.43734 21.9207C5.43734 21.3345 4.96217 20.8594 4.37602 20.8594Z" fill="#422659"/>
<path opacity="0.9" d="M19.466 10.2449C19.2821 9.97032 19.093 9.7009 18.8992 9.43708C18.7613 9.24973 18.5232 9.16465 18.2981 9.22266C17.7223 9.3709 16.6154 9.78426 15.799 10.8752C15.2082 11.6654 13.9582 11.1116 14.1443 10.1426C14.2285 9.70305 14.3939 9.21407 14.6728 8.67696C15.9657 6.18735 13.9853 4.28469 13.8439 4.15364C13.8384 4.14848 13.8328 4.14419 13.8263 4.13946C13.7602 4.09434 13.361 3.84555 12.9884 4.14633C12.9064 4.21251 10.9315 5.7654 8.93176 8.15661C6.77086 10.7407 4.81836 14.0248 4.81836 17.4061C4.81836 18.6917 5.10281 19.912 5.61113 21.0086C6.26297 21.1194 6.93285 21.1774 7.61605 21.1774C13.8598 21.1774 18.9787 16.3636 19.4651 10.2449H19.466Z" fill="#422659"/>
<path opacity="0.9" d="M13.4239 22.9963C10.7229 22.9963 8.5332 20.8066 8.5332 18.1055C8.5332 15.4045 10.7229 13.2148 13.4239 13.2148C16.1249 13.2148 18.3146 15.4045 18.3146 18.1055C18.3146 20.8066 16.1249 22.9963 13.4239 22.9963Z" fill="white"/>
<path opacity="0.9" d="M15.3618 17.6585H13.9086V15.1135C13.9086 14.7921 13.6482 14.5312 13.3264 14.5312C13.0045 14.5312 12.7441 14.7916 12.7441 15.1135V18.2407C12.7441 18.5621 13.0045 18.823 13.3264 18.823H15.3618C15.6832 18.823 15.944 18.5626 15.944 18.2407C15.944 17.9189 15.6836 17.6585 15.3618 17.6585Z" fill="#422659"/>
</g>
<g opacity="0.9">
<path d="M30.0508 8.00879H34.2959C36.1689 8.00879 37.5771 8.28906 38.5205 8.84961C39.4639 9.41016 39.9355 10.3638 39.9355 11.7104C39.9355 12.2915 39.8228 12.8145 39.5972 13.2793C39.3784 13.7373 39.0571 14.1167 38.6333 14.4175C38.2095 14.7183 37.6865 14.9268 37.0645 15.043V15.1455C37.7207 15.248 38.3018 15.436 38.8076 15.7095C39.3135 15.9829 39.71 16.3657 39.9971 16.8579C40.2842 17.3501 40.4277 17.9756 40.4277 18.7344C40.4277 19.6572 40.2124 20.4365 39.7817 21.0723C39.3579 21.708 38.7563 22.1899 37.9771 22.5181C37.1978 22.8394 36.2749 23 35.2085 23H30.0508V8.00879ZM31.7939 14.438H34.665C35.9707 14.438 36.873 14.2227 37.3721 13.792C37.8779 13.3613 38.1309 12.7324 38.1309 11.9053C38.1309 11.0508 37.8301 10.4355 37.2285 10.0596C36.6338 9.68359 35.6836 9.49561 34.3779 9.49561H31.7939V14.438ZM31.7939 15.9043V21.5132H34.9111C36.2441 21.5132 37.1875 21.2534 37.7412 20.7339C38.2949 20.2075 38.5718 19.5 38.5718 18.6113C38.5718 18.0439 38.4453 17.5586 38.1924 17.1553C37.9463 16.752 37.543 16.4443 36.9824 16.2324C36.4287 16.0137 35.687 15.9043 34.7573 15.9043H31.7939ZM52.7904 11.7617V23H51.3959L51.1498 21.4209H51.0575C50.8251 21.8105 50.5243 22.1387 50.1551 22.4053C49.786 22.6719 49.369 22.8701 48.9042 23C48.4462 23.1367 47.9574 23.2051 47.4379 23.2051C46.5492 23.2051 45.8041 23.0615 45.2025 22.7744C44.6009 22.4873 44.1463 22.043 43.8387 21.4414C43.5379 20.8398 43.3876 20.0674 43.3876 19.124V11.7617H45.1102V19.001C45.1102 19.9375 45.3221 20.6382 45.746 21.103C46.1698 21.561 46.8158 21.79 47.6839 21.79C48.5179 21.79 49.181 21.6328 49.6732 21.3184C50.1722 21.0039 50.5311 20.5425 50.7499 19.9341C50.9686 19.3188 51.078 18.5669 51.078 17.6782V11.7617H52.7904ZM54.7556 11.7617H56.5808L59.0622 18.2832C59.2058 18.666 59.3391 19.0352 59.4621 19.3906C59.5852 19.7393 59.6946 20.0742 59.7903 20.3955C59.886 20.7168 59.9612 21.0278 60.0158 21.3286H60.0876C60.1833 20.9868 60.32 20.5391 60.4978 19.9854C60.6755 19.4248 60.8669 18.854 61.072 18.2729L63.4201 11.7617H65.2556L60.3645 24.6509C60.1047 25.3413 59.8005 25.9429 59.4519 26.4556C59.1101 26.9683 58.6931 27.3613 58.2009 27.6348C57.7087 27.915 57.114 28.0552 56.4167 28.0552C56.0954 28.0552 55.8117 28.0347 55.5656 27.9937C55.3196 27.9595 55.1076 27.9185 54.9299 27.8706V26.5068C55.0803 26.541 55.2614 26.5718 55.4734 26.5991C55.6921 26.6265 55.9177 26.6401 56.1501 26.6401C56.5739 26.6401 56.9397 26.5581 57.2473 26.394C57.5617 26.2368 57.8318 26.0044 58.0573 25.6968C58.2829 25.3892 58.4778 25.0234 58.6418 24.5996L59.2571 23.0205L54.7556 11.7617Z" fill="#495F6A"/>
<path d="M73.0347 11.4336C74.3131 11.4336 75.3077 11.7651 76.0186 12.4282C76.7364 13.0845 77.0953 14.1406 77.0953 15.5967V23H74.6856V16.0479C74.6856 15.166 74.5045 14.5063 74.1422 14.0688C73.7799 13.6245 73.2193 13.4023 72.4605 13.4023C71.3599 13.4023 70.5943 13.7407 70.1637 14.4175C69.7398 15.0942 69.5279 16.0752 69.5279 17.3604V23H67.1182V11.6489H68.9947L69.3331 13.187H69.4664C69.7125 12.7905 70.0167 12.4658 70.379 12.2129C70.7481 11.9531 71.1583 11.7583 71.6095 11.6284C72.0675 11.4985 72.5426 11.4336 73.0347 11.4336ZM90.6577 17.2988C90.6577 18.2422 90.5346 19.0796 90.2885 19.811C90.0424 20.5425 89.6835 21.1611 89.2119 21.667C88.7402 22.166 88.1728 22.5488 87.5097 22.8154C86.8466 23.0752 86.0981 23.2051 85.2641 23.2051C84.4848 23.2051 83.7705 23.0752 83.121 22.8154C82.4716 22.5488 81.9077 22.166 81.4291 21.667C80.9575 21.1611 80.5917 20.5425 80.332 19.811C80.0722 19.0796 79.9423 18.2422 79.9423 17.2988C79.9423 16.0479 80.1577 14.9883 80.5883 14.1201C81.0258 13.2451 81.6479 12.5786 82.4545 12.1206C83.2612 11.6626 84.2216 11.4336 85.3359 11.4336C86.3818 11.4336 87.3046 11.6626 88.1044 12.1206C88.9042 12.5786 89.5297 13.2451 89.9809 14.1201C90.4321 14.9951 90.6577 16.0547 90.6577 17.2988ZM82.4238 17.2988C82.4238 18.126 82.5229 18.8335 82.7211 19.4214C82.9262 20.0093 83.2407 20.4604 83.6645 20.7749C84.0883 21.0825 84.6352 21.2363 85.3051 21.2363C85.975 21.2363 86.5219 21.0825 86.9457 20.7749C87.3696 20.4604 87.6806 20.0093 87.8788 19.4214C88.0771 18.8335 88.1762 18.126 88.1762 17.2988C88.1762 16.4717 88.0771 15.771 87.8788 15.1968C87.6806 14.6157 87.3696 14.1748 86.9457 13.874C86.5219 13.5664 85.9716 13.4126 85.2949 13.4126C84.2968 13.4126 83.5688 13.7476 83.1108 14.4175C82.6528 15.0874 82.4238 16.0479 82.4238 17.2988ZM102.846 22.9897L101.41 17.709C101.342 17.4492 101.26 17.1348 101.164 16.7656C101.069 16.3965 100.973 16.0171 100.877 15.6274C100.782 15.231 100.693 14.8652 100.611 14.5303C100.535 14.1953 100.477 13.9355 100.436 13.751H100.354C100.32 13.9355 100.265 14.1953 100.19 14.5303C100.115 14.8652 100.03 15.231 99.9339 15.6274C99.8382 16.0239 99.7425 16.4102 99.6468 16.7861C99.5579 17.1621 99.4759 17.4834 99.4007 17.75L97.8934 22.9897H95.2479L92.0691 11.6387H94.5096L95.9861 17.2783C96.0818 17.6611 96.1741 18.0747 96.263 18.519C96.3587 18.9634 96.4407 19.3872 96.5091 19.7905C96.5774 20.1938 96.6287 20.5254 96.6629 20.7852H96.7449C96.7723 20.6006 96.8099 20.3682 96.8577 20.0879C96.9056 19.8008 96.9603 19.5034 97.0218 19.1958C97.0833 18.8813 97.1448 18.5874 97.2063 18.314C97.2679 18.0337 97.326 17.8081 97.3807 17.6372L99.1238 11.6387H101.759L103.43 17.6372C103.506 17.897 103.588 18.2251 103.677 18.6216C103.765 19.0112 103.844 19.4043 103.912 19.8008C103.988 20.1904 104.035 20.5151 104.056 20.7749H104.138C104.165 20.5425 104.213 20.228 104.282 19.8315C104.357 19.4282 104.442 19.001 104.538 18.5498C104.634 18.0918 104.733 17.668 104.835 17.2783L106.343 11.6387H108.742L105.543 22.9897H102.846Z" fill="#1F292D"/>
</g>
<defs>
<clipPath id="clip0_2593_272">
<rect width="22" height="22" fill="white" transform="translate(0 4)"/>
</clipPath>
</defs>
</svg>
