<svg width="20" height="16" viewBox="0 0 20 16" fill="none" xmlns="http://www.w3.org/2000/svg">
<path d="M7 14.5C7 15.0523 7.44772 15.5 8 15.5H19C19.5523 15.5 20 15.0523 20 14.5C20 13.9477 19.5523 13.5 19 13.5H8C7.44772 13.5 7 13.9477 7 14.5ZM1 0.5C0.447715 0.5 0 0.947715 0 1.5C0 2.05228 0.447715 2.5 1 2.5H19C19.5523 2.5 20 2.05228 20 1.5C20 0.947715 19.5523 0.5 19 0.5H1ZM9 8.5C9 9.05229 9.44772 9.5 10 9.5H19C19.5523 9.5 20 9.05229 20 8.5C20 7.94772 19.5523 7.5 19 7.5H10C9.44771 7.5 9 7.94772 9 8.5Z" fill="#495F6A"/>
</svg>
