<svg width="20" height="20" viewBox="0 0 20 20" fill="none" xmlns="http://www.w3.org/2000/svg">
<path d="M17.5 3.61011H2.5C2.16848 3.61011 1.85054 3.7418 1.61612 3.97622C1.3817 4.21064 1.25 4.52859 1.25 4.86011V14.8601C1.25 15.1916 1.3817 15.5096 1.61612 15.744C1.85054 15.9784 2.16848 16.1101 2.5 16.1101H17.5C17.8315 16.1101 18.1495 15.9784 18.3839 15.744C18.6183 15.5096 18.75 15.1916 18.75 14.8601V4.86011C18.75 4.52859 18.6183 4.21064 18.3839 3.97622C18.1495 3.7418 17.8315 3.61011 17.5 3.61011ZM16.125 4.86011L10 9.09761L3.875 4.86011H16.125ZM2.5 14.8601V5.42886L9.64375 10.3726C9.74837 10.4452 9.87267 10.4841 10 10.4841C10.1273 10.4841 10.2516 10.4452 10.3562 10.3726L17.5 5.42886V14.8601H2.5Z" fill="white"/>
</svg>
