<svg width="59" height="20" viewBox="0 0 59 20" fill="none" xmlns="http://www.w3.org/2000/svg">
<rect width="59" height="20" rx="10" fill="#ED6C02"/>
<path d="M10.2202 14.1193C9.68608 14.1193 9.20597 14.017 8.77983 13.8125C8.35653 13.6051 8.01847 13.321 7.76562 12.9602C7.51278 12.5994 7.37784 12.1875 7.3608 11.7244H8.6392C8.67045 12.0994 8.83665 12.4077 9.13778 12.6491C9.43892 12.8906 9.79972 13.0114 10.2202 13.0114C10.5554 13.0114 10.8523 12.9347 11.1108 12.7812C11.3722 12.625 11.5767 12.4105 11.7244 12.1378C11.875 11.8651 11.9503 11.554 11.9503 11.2045C11.9503 10.8494 11.8736 10.5327 11.7202 10.2543C11.5668 9.97585 11.3551 9.7571 11.0852 9.59801C10.8182 9.43892 10.5114 9.35795 10.1648 9.35511C9.90057 9.35511 9.63494 9.40057 9.3679 9.49148C9.10085 9.58239 8.88494 9.7017 8.72017 9.84943L7.5142 9.67045L8.00426 5.27273H12.8026V6.40199H9.09943L8.82244 8.84375H8.87358C9.04403 8.67898 9.26989 8.54119 9.55114 8.4304C9.83523 8.3196 10.1392 8.2642 10.4631 8.2642C10.9943 8.2642 11.4673 8.39062 11.8821 8.64347C12.2997 8.89631 12.6278 9.24148 12.8665 9.67898C13.108 10.1136 13.2273 10.6136 13.2244 11.179C13.2273 11.7443 13.0994 12.2486 12.8409 12.6918C12.5852 13.1349 12.2301 13.4844 11.7756 13.7401C11.3239 13.9929 10.8054 14.1193 10.2202 14.1193ZM17.9592 14.1449C17.286 14.142 16.7107 13.9645 16.2334 13.6122C15.7561 13.2599 15.3911 12.7472 15.1382 12.0739C14.8854 11.4006 14.759 10.5895 14.759 9.64062C14.759 8.6946 14.8854 7.88636 15.1382 7.21591C15.3939 6.54545 15.7604 6.03409 16.2377 5.68182C16.7178 5.32955 17.2916 5.15341 17.9592 5.15341C18.6269 5.15341 19.1993 5.33097 19.6766 5.68608C20.1538 6.03835 20.5189 6.54972 20.7717 7.22017C21.0274 7.88778 21.1553 8.6946 21.1553 9.64062C21.1553 10.5923 21.0288 11.4048 20.776 12.0781C20.5232 12.7486 20.1581 13.2614 19.6808 13.6165C19.2036 13.9688 18.6297 14.1449 17.9592 14.1449ZM17.9592 13.0071C18.5502 13.0071 19.0118 12.7188 19.3442 12.142C19.6794 11.5653 19.847 10.7315 19.847 9.64062C19.847 8.91619 19.7703 8.30398 19.6169 7.80398C19.4663 7.30114 19.249 6.92045 18.9649 6.66193C18.6837 6.40057 18.3485 6.26989 17.9592 6.26989C17.3712 6.26989 16.9095 6.55966 16.5743 7.1392C16.2391 7.71875 16.07 8.55256 16.0672 9.64062C16.0672 10.3679 16.1425 10.983 16.2931 11.4858C16.4465 11.9858 16.6638 12.3651 16.945 12.6236C17.2263 12.8793 17.5644 13.0071 17.9592 13.0071ZM27.3624 12.3636V11.9034C27.3624 11.5739 27.4306 11.2727 27.5669 11C27.7061 10.7244 27.9078 10.5043 28.172 10.3395C28.4391 10.1719 28.7615 10.0881 29.1394 10.0881C29.5257 10.0881 29.8496 10.1705 30.111 10.3352C30.3723 10.5 30.5698 10.7202 30.7033 10.9957C30.8397 11.2713 30.9078 11.5739 30.9078 11.9034V12.3636C30.9078 12.6932 30.8397 12.9957 30.7033 13.2713C30.5669 13.544 30.3666 13.7642 30.1024 13.9318C29.8411 14.0966 29.5201 14.179 29.1394 14.179C28.7559 14.179 28.432 14.0966 28.1678 13.9318C27.9036 13.7642 27.7033 13.544 27.5669 13.2713C27.4306 12.9957 27.3624 12.6932 27.3624 12.3636ZM28.3553 11.9034V12.3636C28.3553 12.608 28.4135 12.8295 28.53 13.0284C28.6465 13.2273 28.8496 13.3267 29.1394 13.3267C29.4263 13.3267 29.6266 13.2273 29.7402 13.0284C29.8539 12.8295 29.9107 12.608 29.9107 12.3636V11.9034C29.9107 11.6591 29.8553 11.4375 29.7445 11.2386C29.6365 11.0398 29.4348 10.9403 29.1394 10.9403C28.8553 10.9403 28.6536 11.0398 28.5343 11.2386C28.4149 11.4375 28.3553 11.6591 28.3553 11.9034ZM22.9732 7.36932V6.90909C22.9732 6.57955 23.0414 6.27699 23.1777 6.00142C23.3169 5.72585 23.5186 5.50568 23.7828 5.34091C24.0499 5.17614 24.3723 5.09375 24.7502 5.09375C25.1365 5.09375 25.4604 5.17614 25.7218 5.34091C25.9831 5.50568 26.1806 5.72585 26.3141 6.00142C26.4476 6.27699 26.5144 6.57955 26.5144 6.90909V7.36932C26.5144 7.69886 26.4462 8.00142 26.3098 8.27699C26.1763 8.54972 25.9774 8.76989 25.7132 8.9375C25.4519 9.10227 25.1309 9.18466 24.7502 9.18466C24.3638 9.18466 24.0385 9.10227 23.7743 8.9375C23.513 8.76989 23.3141 8.54972 23.1777 8.27699C23.0414 8.00142 22.9732 7.69886 22.9732 7.36932ZM23.9703 6.90909V7.36932C23.9703 7.61364 24.0272 7.83523 24.1408 8.03409C24.2573 8.23295 24.4604 8.33239 24.7502 8.33239C25.0343 8.33239 25.2331 8.23295 25.3468 8.03409C25.4632 7.83523 25.5215 7.61364 25.5215 7.36932V6.90909C25.5215 6.66477 25.4661 6.44318 25.3553 6.24432C25.2445 6.04545 25.0428 5.94602 24.7502 5.94602C24.4661 5.94602 24.2644 6.04545 24.1451 6.24432C24.0286 6.44318 23.9703 6.66477 23.9703 6.90909ZM23.378 14L29.378 5.27273H30.3965L24.3965 14H23.378ZM38.9744 14.1321C38.3608 14.1321 37.8253 13.9915 37.3679 13.7102C36.9105 13.429 36.5554 13.0355 36.3025 12.5298C36.0497 12.0241 35.9233 11.4332 35.9233 10.7571C35.9233 10.0781 36.0497 9.48437 36.3025 8.97585C36.5554 8.46733 36.9105 8.07244 37.3679 7.79119C37.8253 7.50994 38.3608 7.36932 38.9744 7.36932C39.5881 7.36932 40.1236 7.50994 40.581 7.79119C41.0383 8.07244 41.3935 8.46733 41.6463 8.97585C41.8991 9.48437 42.0256 10.0781 42.0256 10.7571C42.0256 11.4332 41.8991 12.0241 41.6463 12.5298C41.3935 13.0355 41.0383 13.429 40.581 13.7102C40.1236 13.9915 39.5881 14.1321 38.9744 14.1321ZM38.9787 13.0625C39.3764 13.0625 39.706 12.9574 39.9673 12.7472C40.2287 12.5369 40.4219 12.2571 40.5469 11.9077C40.6747 11.5582 40.7386 11.1733 40.7386 10.7528C40.7386 10.3352 40.6747 9.9517 40.5469 9.60227C40.4219 9.25 40.2287 8.96733 39.9673 8.75426C39.706 8.54119 39.3764 8.43466 38.9787 8.43466C38.5781 8.43466 38.2457 8.54119 37.9815 8.75426C37.7202 8.96733 37.5256 9.25 37.3977 9.60227C37.2727 9.9517 37.2102 10.3352 37.2102 10.7528C37.2102 11.1733 37.2727 11.5582 37.3977 11.9077C37.5256 12.2571 37.7202 12.5369 37.9815 12.7472C38.2457 12.9574 38.5781 13.0625 38.9787 13.0625ZM46.7028 7.45455V8.47727H43.004V7.45455H46.7028ZM44.0182 14V6.69602C44.0182 6.28693 44.1077 5.94744 44.2866 5.67756C44.4656 5.40483 44.7028 5.2017 44.9983 5.06818C45.2938 4.93182 45.6148 4.86364 45.9614 4.86364C46.217 4.86364 46.4358 4.88494 46.6176 4.92756C46.7994 4.96733 46.9344 5.00426 47.0224 5.03835L46.7241 6.0696C46.6645 6.05256 46.5878 6.03267 46.494 6.00994C46.4003 5.98437 46.2866 5.97159 46.1531 5.97159C45.8435 5.97159 45.6219 6.0483 45.4884 6.2017C45.3577 6.35511 45.2923 6.5767 45.2923 6.86648V14H44.0182ZM51.2725 7.45455V8.47727H47.5737V7.45455H51.2725ZM48.5879 14V6.69602C48.5879 6.28693 48.6774 5.94744 48.8563 5.67756C49.0353 5.40483 49.2725 5.2017 49.568 5.06818C49.8634 4.93182 50.1845 4.86364 50.5311 4.86364C50.7867 4.86364 51.0055 4.88494 51.1873 4.92756C51.3691 4.96733 51.5041 5.00426 51.5921 5.03835L51.2938 6.0696C51.2342 6.05256 51.1575 6.03267 51.0637 6.00994C50.97 5.98437 50.8563 5.97159 50.7228 5.97159C50.4132 5.97159 50.1916 6.0483 50.058 6.2017C49.9274 6.35511 49.862 6.5767 49.862 6.86648V14H48.5879Z" fill="white"/>
</svg>
