<svg width="59" height="20" viewBox="0 0 59 20" fill="none" xmlns="http://www.w3.org/2000/svg">
<rect width="59" height="20" rx="10" fill="#ED6C02"/>
<path d="M10.3778 14.1193C9.79261 14.1193 9.26989 14.0185 8.80966 13.8168C8.35227 13.6151 7.99006 13.3352 7.72301 12.9773C7.45881 12.6165 7.31676 12.1989 7.29688 11.7244H8.63494C8.65199 11.983 8.73864 12.2074 8.89489 12.3977C9.05398 12.5852 9.26136 12.7301 9.51705 12.8324C9.77273 12.9347 10.0568 12.9858 10.3693 12.9858C10.7131 12.9858 11.017 12.9261 11.2812 12.8068C11.5483 12.6875 11.7571 12.5213 11.9077 12.3082C12.0582 12.0923 12.1335 11.8438 12.1335 11.5625C12.1335 11.2699 12.0582 11.0128 11.9077 10.7912C11.7599 10.5668 11.5426 10.3906 11.2557 10.2628C10.9716 10.1349 10.6278 10.071 10.2244 10.071H9.48722V8.99716H10.2244C10.5483 8.99716 10.8324 8.93892 11.0767 8.82244C11.3239 8.70597 11.517 8.54403 11.6562 8.33665C11.7955 8.12642 11.8651 7.88068 11.8651 7.59943C11.8651 7.32955 11.804 7.09517 11.6818 6.89631C11.5625 6.6946 11.392 6.53693 11.1705 6.4233C10.9517 6.30966 10.6932 6.25284 10.3949 6.25284C10.1108 6.25284 9.84517 6.3054 9.59801 6.41051C9.35369 6.51278 9.15483 6.66051 9.00142 6.85369C8.84801 7.04403 8.76563 7.27273 8.75426 7.53977H7.48011C7.49432 7.06818 7.63352 6.65341 7.89773 6.29545C8.16477 5.9375 8.51705 5.65767 8.95455 5.45597C9.39205 5.25426 9.87784 5.15341 10.4119 5.15341C10.9716 5.15341 11.4545 5.26278 11.8608 5.48153C12.2699 5.69744 12.5852 5.9858 12.8068 6.34659C13.0313 6.70739 13.142 7.10227 13.1392 7.53125C13.142 8.01989 13.0057 8.43466 12.7301 8.77557C12.4574 9.11648 12.0938 9.34517 11.6392 9.46165V9.52983C12.2188 9.6179 12.6676 9.84801 12.9858 10.2202C13.3068 10.5923 13.4659 11.054 13.4631 11.6051C13.4659 12.0852 13.3324 12.5156 13.0625 12.8963C12.7955 13.277 12.4304 13.5767 11.9673 13.7955C11.5043 14.0114 10.9744 14.1193 10.3778 14.1193ZM18.0945 14.1193C17.5605 14.1193 17.0803 14.017 16.6542 13.8125C16.2309 13.6051 15.8928 13.321 15.64 12.9602C15.3872 12.5994 15.2522 12.1875 15.2352 11.7244H16.5136C16.5448 12.0994 16.711 12.4077 17.0122 12.6491C17.3133 12.8906 17.6741 13.0114 18.0945 13.0114C18.4298 13.0114 18.7266 12.9347 18.9852 12.7812C19.2465 12.625 19.4511 12.4105 19.5988 12.1378C19.7494 11.8651 19.8247 11.554 19.8247 11.2045C19.8247 10.8494 19.748 10.5327 19.5945 10.2543C19.4411 9.97585 19.2295 9.7571 18.9596 9.59801C18.6926 9.43892 18.3857 9.35795 18.0391 9.35511C17.7749 9.35511 17.5093 9.40057 17.2423 9.49148C16.9752 9.58239 16.7593 9.7017 16.5945 9.84943L15.3886 9.67045L15.8786 5.27273H20.6769V6.40199H16.9738L16.6968 8.84375H16.748C16.9184 8.67898 17.1443 8.54119 17.4255 8.4304C17.7096 8.3196 18.0136 8.2642 18.3374 8.2642C18.8687 8.2642 19.3417 8.39062 19.7565 8.64347C20.1741 8.89631 20.5022 9.24148 20.7409 9.67898C20.9823 10.1136 21.1016 10.6136 21.0988 11.179C21.1016 11.7443 20.9738 12.2486 20.7153 12.6918C20.4596 13.1349 20.1045 13.4844 19.6499 13.7401C19.1982 13.9929 18.6798 14.1193 18.0945 14.1193ZM27.3507 12.3636V11.9034C27.3507 11.5739 27.4188 11.2727 27.5552 11C27.6944 10.7244 27.8961 10.5043 28.1603 10.3395C28.4274 10.1719 28.7498 10.0881 29.1277 10.0881C29.514 10.0881 29.8379 10.1705 30.0992 10.3352C30.3606 10.5 30.5581 10.7202 30.6916 10.9957C30.8279 11.2713 30.8961 11.5739 30.8961 11.9034V12.3636C30.8961 12.6932 30.8279 12.9957 30.6916 13.2713C30.5552 13.544 30.3549 13.7642 30.0907 13.9318C29.8294 14.0966 29.5083 14.179 29.1277 14.179C28.7441 14.179 28.4203 14.0966 28.1561 13.9318C27.8919 13.7642 27.6916 13.544 27.5552 13.2713C27.4188 12.9957 27.3507 12.6932 27.3507 12.3636ZM28.3436 11.9034V12.3636C28.3436 12.608 28.4018 12.8295 28.5183 13.0284C28.6348 13.2273 28.8379 13.3267 29.1277 13.3267C29.4146 13.3267 29.6149 13.2273 29.7285 13.0284C29.8421 12.8295 29.899 12.608 29.899 12.3636V11.9034C29.899 11.6591 29.8436 11.4375 29.7328 11.2386C29.6248 11.0398 29.4231 10.9403 29.1277 10.9403C28.8436 10.9403 28.6419 11.0398 28.5225 11.2386C28.4032 11.4375 28.3436 11.6591 28.3436 11.9034ZM22.9615 7.36932V6.90909C22.9615 6.57955 23.0296 6.27699 23.166 6.00142C23.3052 5.72585 23.5069 5.50568 23.7711 5.34091C24.0382 5.17614 24.3606 5.09375 24.7385 5.09375C25.1248 5.09375 25.4487 5.17614 25.71 5.34091C25.9714 5.50568 26.1688 5.72585 26.3024 6.00142C26.4359 6.27699 26.5027 6.57955 26.5027 6.90909V7.36932C26.5027 7.69886 26.4345 8.00142 26.2981 8.27699C26.1646 8.54972 25.9657 8.76989 25.7015 8.9375C25.4402 9.10227 25.1191 9.18466 24.7385 9.18466C24.3521 9.18466 24.0268 9.10227 23.7626 8.9375C23.5012 8.76989 23.3024 8.54972 23.166 8.27699C23.0296 8.00142 22.9615 7.69886 22.9615 7.36932ZM23.9586 6.90909V7.36932C23.9586 7.61364 24.0154 7.83523 24.1291 8.03409C24.2456 8.23295 24.4487 8.33239 24.7385 8.33239C25.0225 8.33239 25.2214 8.23295 25.335 8.03409C25.4515 7.83523 25.5098 7.61364 25.5098 7.36932V6.90909C25.5098 6.66477 25.4544 6.44318 25.3436 6.24432C25.2328 6.04545 25.0311 5.94602 24.7385 5.94602C24.4544 5.94602 24.2527 6.04545 24.1333 6.24432C24.0169 6.44318 23.9586 6.66477 23.9586 6.90909ZM23.3663 14L29.3663 5.27273H30.3848L24.3848 14H23.3663ZM38.9627 14.1321C38.3491 14.1321 37.8136 13.9915 37.3562 13.7102C36.8988 13.429 36.5437 13.0355 36.2908 12.5298C36.038 12.0241 35.9116 11.4332 35.9116 10.7571C35.9116 10.0781 36.038 9.48437 36.2908 8.97585C36.5437 8.46733 36.8988 8.07244 37.3562 7.79119C37.8136 7.50994 38.3491 7.36932 38.9627 7.36932C39.5763 7.36932 40.1118 7.50994 40.5692 7.79119C41.0266 8.07244 41.3817 8.46733 41.6346 8.97585C41.8874 9.48437 42.0138 10.0781 42.0138 10.7571C42.0138 11.4332 41.8874 12.0241 41.6346 12.5298C41.3817 13.0355 41.0266 13.429 40.5692 13.7102C40.1118 13.9915 39.5763 14.1321 38.9627 14.1321ZM38.967 13.0625C39.3647 13.0625 39.6942 12.9574 39.9556 12.7472C40.217 12.5369 40.4101 12.2571 40.5351 11.9077C40.663 11.5582 40.7269 11.1733 40.7269 10.7528C40.7269 10.3352 40.663 9.9517 40.5351 9.60227C40.4101 9.25 40.217 8.96733 39.9556 8.75426C39.6942 8.54119 39.3647 8.43466 38.967 8.43466C38.5664 8.43466 38.234 8.54119 37.9698 8.75426C37.7084 8.96733 37.5138 9.25 37.386 9.60227C37.261 9.9517 37.1985 10.3352 37.1985 10.7528C37.1985 11.1733 37.261 11.5582 37.386 11.9077C37.5138 12.2571 37.7084 12.5369 37.9698 12.7472C38.234 12.9574 38.5664 13.0625 38.967 13.0625ZM46.6911 7.45455V8.47727H42.9923V7.45455H46.6911ZM44.0065 14V6.69602C44.0065 6.28693 44.096 5.94744 44.2749 5.67756C44.4539 5.40483 44.6911 5.2017 44.9866 5.06818C45.282 4.93182 45.6031 4.86364 45.9496 4.86364C46.2053 4.86364 46.4241 4.88494 46.6059 4.92756C46.7877 4.96733 46.9227 5.00426 47.0107 5.03835L46.7124 6.0696C46.6528 6.05256 46.5761 6.03267 46.4823 6.00994C46.3886 5.98437 46.2749 5.97159 46.1414 5.97159C45.8317 5.97159 45.6102 6.0483 45.4766 6.2017C45.346 6.35511 45.2806 6.5767 45.2806 6.86648V14H44.0065ZM51.2608 7.45455V8.47727H47.5619V7.45455H51.2608ZM48.5762 14V6.69602C48.5762 6.28693 48.6656 5.94744 48.8446 5.67756C49.0236 5.40483 49.2608 5.2017 49.5563 5.06818C49.8517 4.93182 50.1727 4.86364 50.5193 4.86364C50.775 4.86364 50.9938 4.88494 51.1756 4.92756C51.3574 4.96733 51.4923 5.00426 51.5804 5.03835L51.2821 6.0696C51.2225 6.05256 51.1458 6.03267 51.052 6.00994C50.9583 5.98437 50.8446 5.97159 50.7111 5.97159C50.4014 5.97159 50.1798 6.0483 50.0463 6.2017C49.9156 6.35511 49.8503 6.5767 49.8503 6.86648V14H48.5762Z" fill="white"/>
</svg>
