<svg width="57" height="20" viewBox="0 0 57 20" fill="none" xmlns="http://www.w3.org/2000/svg">
<rect width="57" height="20" rx="10" fill="#ED6C02"/>
<path d="M10.6506 5.27273V14H9.32955V6.59375H9.27841L7.19034 7.95739V6.69602L9.3679 5.27273H10.6506ZM16.032 14.1193C15.498 14.1193 15.0178 14.017 14.5917 13.8125C14.1684 13.6051 13.8303 13.321 13.5775 12.9602C13.3247 12.5994 13.1897 12.1875 13.1727 11.7244H14.4511C14.4823 12.0994 14.6485 12.4077 14.9497 12.6491C15.2508 12.8906 15.6116 13.0114 16.032 13.0114C16.3673 13.0114 16.6641 12.9347 16.9227 12.7812C17.184 12.625 17.3886 12.4105 17.5363 12.1378C17.6869 11.8651 17.7622 11.554 17.7622 11.2045C17.7622 10.8494 17.6855 10.5327 17.532 10.2543C17.3786 9.97585 17.167 9.7571 16.8971 9.59801C16.6301 9.43892 16.3232 9.35795 15.9766 9.35511C15.7124 9.35511 15.4468 9.40057 15.1798 9.49148C14.9127 9.58239 14.6968 9.7017 14.532 9.84943L13.3261 9.67045L13.8161 5.27273H18.6144V6.40199H14.9113L14.6343 8.84375H14.6855C14.8559 8.67898 15.0818 8.54119 15.363 8.4304C15.6471 8.3196 15.9511 8.2642 16.2749 8.2642C16.8062 8.2642 17.2792 8.39062 17.694 8.64347C18.1116 8.89631 18.4397 9.24148 18.6784 9.67898C18.9198 10.1136 19.0391 10.6136 19.0363 11.179C19.0391 11.7443 18.9113 12.2486 18.6528 12.6918C18.3971 13.1349 18.042 13.4844 17.5874 13.7401C17.1357 13.9929 16.6173 14.1193 16.032 14.1193ZM25.2882 12.3636V11.9034C25.2882 11.5739 25.3563 11.2727 25.4927 11C25.6319 10.7244 25.8336 10.5043 26.0978 10.3395C26.3649 10.1719 26.6873 10.0881 27.0652 10.0881C27.4515 10.0881 27.7754 10.1705 28.0367 10.3352C28.2981 10.5 28.4956 10.7202 28.6291 10.9957C28.7654 11.2713 28.8336 11.5739 28.8336 11.9034V12.3636C28.8336 12.6932 28.7654 12.9957 28.6291 13.2713C28.4927 13.544 28.2924 13.7642 28.0282 13.9318C27.7669 14.0966 27.4458 14.179 27.0652 14.179C26.6816 14.179 26.3578 14.0966 26.0936 13.9318C25.8294 13.7642 25.6291 13.544 25.4927 13.2713C25.3563 12.9957 25.2882 12.6932 25.2882 12.3636ZM26.2811 11.9034V12.3636C26.2811 12.608 26.3393 12.8295 26.4558 13.0284C26.5723 13.2273 26.7754 13.3267 27.0652 13.3267C27.3521 13.3267 27.5524 13.2273 27.666 13.0284C27.7796 12.8295 27.8365 12.608 27.8365 12.3636V11.9034C27.8365 11.6591 27.7811 11.4375 27.6703 11.2386C27.5623 11.0398 27.3606 10.9403 27.0652 10.9403C26.7811 10.9403 26.5794 11.0398 26.46 11.2386C26.3407 11.4375 26.2811 11.6591 26.2811 11.9034ZM20.899 7.36932V6.90909C20.899 6.57955 20.9671 6.27699 21.1035 6.00142C21.2427 5.72585 21.4444 5.50568 21.7086 5.34091C21.9757 5.17614 22.2981 5.09375 22.676 5.09375C23.0623 5.09375 23.3862 5.17614 23.6475 5.34091C23.9089 5.50568 24.1063 5.72585 24.2399 6.00142C24.3734 6.27699 24.4402 6.57955 24.4402 6.90909V7.36932C24.4402 7.69886 24.372 8.00142 24.2356 8.27699C24.1021 8.54972 23.9032 8.76989 23.639 8.9375C23.3777 9.10227 23.0566 9.18466 22.676 9.18466C22.2896 9.18466 21.9643 9.10227 21.7001 8.9375C21.4387 8.76989 21.2399 8.54972 21.1035 8.27699C20.9671 8.00142 20.899 7.69886 20.899 7.36932ZM21.8961 6.90909V7.36932C21.8961 7.61364 21.9529 7.83523 22.0666 8.03409C22.1831 8.23295 22.3862 8.33239 22.676 8.33239C22.96 8.33239 23.1589 8.23295 23.2725 8.03409C23.389 7.83523 23.4473 7.61364 23.4473 7.36932V6.90909C23.4473 6.66477 23.3919 6.44318 23.2811 6.24432C23.1703 6.04545 22.9686 5.94602 22.676 5.94602C22.3919 5.94602 22.1902 6.04545 22.0708 6.24432C21.9544 6.44318 21.8961 6.66477 21.8961 6.90909ZM21.3038 14L27.3038 5.27273H28.3223L22.3223 14H21.3038ZM36.9002 14.1321C36.2866 14.1321 35.7511 13.9915 35.2937 13.7102C34.8363 13.429 34.4812 13.0355 34.2283 12.5298C33.9755 12.0241 33.8491 11.4332 33.8491 10.7571C33.8491 10.0781 33.9755 9.48437 34.2283 8.97585C34.4812 8.46733 34.8363 8.07244 35.2937 7.79119C35.7511 7.50994 36.2866 7.36932 36.9002 7.36932C37.5138 7.36932 38.0493 7.50994 38.5067 7.79119C38.9641 8.07244 39.3192 8.46733 39.5721 8.97585C39.8249 9.48437 39.9513 10.0781 39.9513 10.7571C39.9513 11.4332 39.8249 12.0241 39.5721 12.5298C39.3192 13.0355 38.9641 13.429 38.5067 13.7102C38.0493 13.9915 37.5138 14.1321 36.9002 14.1321ZM36.9045 13.0625C37.3022 13.0625 37.6317 12.9574 37.8931 12.7472C38.1545 12.5369 38.3476 12.2571 38.4726 11.9077C38.6005 11.5582 38.6644 11.1733 38.6644 10.7528C38.6644 10.3352 38.6005 9.9517 38.4726 9.60227C38.3476 9.25 38.1545 8.96733 37.8931 8.75426C37.6317 8.54119 37.3022 8.43466 36.9045 8.43466C36.5039 8.43466 36.1715 8.54119 35.9073 8.75426C35.6459 8.96733 35.4513 9.25 35.3235 9.60227C35.1985 9.9517 35.136 10.3352 35.136 10.7528C35.136 11.1733 35.1985 11.5582 35.3235 11.9077C35.4513 12.2571 35.6459 12.5369 35.9073 12.7472C36.1715 12.9574 36.5039 13.0625 36.9045 13.0625ZM44.6286 7.45455V8.47727H40.9298V7.45455H44.6286ZM41.944 14V6.69602C41.944 6.28693 42.0335 5.94744 42.2124 5.67756C42.3914 5.40483 42.6286 5.2017 42.9241 5.06818C43.2195 4.93182 43.5406 4.86364 43.8871 4.86364C44.1428 4.86364 44.3616 4.88494 44.5434 4.92756C44.7252 4.96733 44.8602 5.00426 44.9482 5.03835L44.6499 6.0696C44.5903 6.05256 44.5136 6.03267 44.4198 6.00994C44.3261 5.98437 44.2124 5.97159 44.0789 5.97159C43.7692 5.97159 43.5477 6.0483 43.4141 6.2017C43.2835 6.35511 43.2181 6.5767 43.2181 6.86648V14H41.944ZM49.1983 7.45455V8.47727H45.4994V7.45455H49.1983ZM46.5137 14V6.69602C46.5137 6.28693 46.6031 5.94744 46.7821 5.67756C46.9611 5.40483 47.1983 5.2017 47.4938 5.06818C47.7892 4.93182 48.1102 4.86364 48.4568 4.86364C48.7125 4.86364 48.9313 4.88494 49.1131 4.92756C49.2949 4.96733 49.4298 5.00426 49.5179 5.03835L49.2196 6.0696C49.16 6.05256 49.0833 6.03267 48.9895 6.00994C48.8958 5.98437 48.7821 5.97159 48.6486 5.97159C48.3389 5.97159 48.1173 6.0483 47.9838 6.2017C47.8531 6.35511 47.7878 6.5767 47.7878 6.86648V14H46.5137Z" fill="white"/>
</svg>
