<svg width="57" height="20" viewBox="0 0 57 20" fill="none" xmlns="http://www.w3.org/2000/svg">
<rect width="57" height="20" rx="10" fill="#ED6C02"/>
<path d="M10.6506 5.27273V14H9.32955V6.59375H9.27841L7.19034 7.95739V6.69602L9.3679 5.27273H10.6506ZM16.1897 14.1449C15.5164 14.142 14.9411 13.9645 14.4639 13.6122C13.9866 13.2599 13.6215 12.7472 13.3687 12.0739C13.1159 11.4006 12.9894 10.5895 12.9894 9.64062C12.9894 8.6946 13.1159 7.88636 13.3687 7.21591C13.6244 6.54545 13.9909 6.03409 14.4681 5.68182C14.9482 5.32955 15.5221 5.15341 16.1897 5.15341C16.8573 5.15341 17.4298 5.33097 17.907 5.68608C18.3843 6.03835 18.7494 6.54972 19.0022 7.22017C19.2579 7.88778 19.3857 8.6946 19.3857 9.64062C19.3857 10.5923 19.2593 11.4048 19.0065 12.0781C18.7536 12.7486 18.3886 13.2614 17.9113 13.6165C17.434 13.9688 16.8602 14.1449 16.1897 14.1449ZM16.1897 13.0071C16.7806 13.0071 17.2423 12.7188 17.5747 12.142C17.9099 11.5653 18.0775 10.7315 18.0775 9.64062C18.0775 8.91619 18.0008 8.30398 17.8474 7.80398C17.6968 7.30114 17.4795 6.92045 17.1954 6.66193C16.9141 6.40057 16.5789 6.26989 16.1897 6.26989C15.6016 6.26989 15.14 6.55966 14.8048 7.1392C14.4695 7.71875 14.3005 8.55256 14.2977 9.64062C14.2977 10.3679 14.373 10.983 14.5235 11.4858C14.6769 11.9858 14.8943 12.3651 15.1755 12.6236C15.4568 12.8793 15.7948 13.0071 16.1897 13.0071ZM25.5929 12.3636V11.9034C25.5929 11.5739 25.661 11.2727 25.7974 11C25.9366 10.7244 26.1383 10.5043 26.4025 10.3395C26.6696 10.1719 26.992 10.0881 27.3698 10.0881C27.7562 10.0881 28.0801 10.1705 28.3414 10.3352C28.6028 10.5 28.8002 10.7202 28.9338 10.9957C29.0701 11.2713 29.1383 11.5739 29.1383 11.9034V12.3636C29.1383 12.6932 29.0701 12.9957 28.9338 13.2713C28.7974 13.544 28.5971 13.7642 28.3329 13.9318C28.0715 14.0966 27.7505 14.179 27.3698 14.179C26.9863 14.179 26.6625 14.0966 26.3983 13.9318C26.134 13.7642 25.9338 13.544 25.7974 13.2713C25.661 12.9957 25.5929 12.6932 25.5929 12.3636ZM26.5858 11.9034V12.3636C26.5858 12.608 26.644 12.8295 26.7605 13.0284C26.8769 13.2273 27.0801 13.3267 27.3698 13.3267C27.6568 13.3267 27.8571 13.2273 27.9707 13.0284C28.0843 12.8295 28.1412 12.608 28.1412 12.3636V11.9034C28.1412 11.6591 28.0858 11.4375 27.975 11.2386C27.867 11.0398 27.6653 10.9403 27.3698 10.9403C27.0858 10.9403 26.884 11.0398 26.7647 11.2386C26.6454 11.4375 26.5858 11.6591 26.5858 11.9034ZM21.2037 7.36932V6.90909C21.2037 6.57955 21.2718 6.27699 21.4082 6.00142C21.5474 5.72585 21.7491 5.50568 22.0133 5.34091C22.2804 5.17614 22.6028 5.09375 22.9806 5.09375C23.367 5.09375 23.6909 5.17614 23.9522 5.34091C24.2136 5.50568 24.411 5.72585 24.5446 6.00142C24.6781 6.27699 24.7448 6.57955 24.7448 6.90909V7.36932C24.7448 7.69886 24.6767 8.00142 24.5403 8.27699C24.4068 8.54972 24.2079 8.76989 23.9437 8.9375C23.6823 9.10227 23.3613 9.18466 22.9806 9.18466C22.5943 9.18466 22.269 9.10227 22.0048 8.9375C21.7434 8.76989 21.5446 8.54972 21.4082 8.27699C21.2718 8.00142 21.2037 7.69886 21.2037 7.36932ZM22.2008 6.90909V7.36932C22.2008 7.61364 22.2576 7.83523 22.3713 8.03409C22.4877 8.23295 22.6909 8.33239 22.9806 8.33239C23.2647 8.33239 23.4636 8.23295 23.5772 8.03409C23.6937 7.83523 23.7519 7.61364 23.7519 7.36932V6.90909C23.7519 6.66477 23.6965 6.44318 23.5858 6.24432C23.475 6.04545 23.2733 5.94602 22.9806 5.94602C22.6965 5.94602 22.4948 6.04545 22.3755 6.24432C22.259 6.44318 22.2008 6.66477 22.2008 6.90909ZM21.6085 14L27.6085 5.27273H28.6269L22.6269 14H21.6085ZM37.2049 14.1321C36.5912 14.1321 36.0557 13.9915 35.5984 13.7102C35.141 13.429 34.7859 13.0355 34.533 12.5298C34.2802 12.0241 34.1537 11.4332 34.1537 10.7571C34.1537 10.0781 34.2802 9.48437 34.533 8.97585C34.7859 8.46733 35.141 8.07244 35.5984 7.79119C36.0557 7.50994 36.5912 7.36932 37.2049 7.36932C37.8185 7.36932 38.354 7.50994 38.8114 7.79119C39.2688 8.07244 39.6239 8.46733 39.8768 8.97585C40.1296 9.48437 40.256 10.0781 40.256 10.7571C40.256 11.4332 40.1296 12.0241 39.8768 12.5298C39.6239 13.0355 39.2688 13.429 38.8114 13.7102C38.354 13.9915 37.8185 14.1321 37.2049 14.1321ZM37.2091 13.0625C37.6069 13.0625 37.9364 12.9574 38.1978 12.7472C38.4591 12.5369 38.6523 12.2571 38.7773 11.9077C38.9052 11.5582 38.9691 11.1733 38.9691 10.7528C38.9691 10.3352 38.9052 9.9517 38.7773 9.60227C38.6523 9.25 38.4591 8.96733 38.1978 8.75426C37.9364 8.54119 37.6069 8.43466 37.2091 8.43466C36.8086 8.43466 36.4762 8.54119 36.212 8.75426C35.9506 8.96733 35.756 9.25 35.6282 9.60227C35.5032 9.9517 35.4407 10.3352 35.4407 10.7528C35.4407 11.1733 35.5032 11.5582 35.6282 11.9077C35.756 12.2571 35.9506 12.5369 36.212 12.7472C36.4762 12.9574 36.8086 13.0625 37.2091 13.0625ZM44.9333 7.45455V8.47727H41.2344V7.45455H44.9333ZM42.2487 14V6.69602C42.2487 6.28693 42.3381 5.94744 42.5171 5.67756C42.6961 5.40483 42.9333 5.2017 43.2288 5.06818C43.5242 4.93182 43.8452 4.86364 44.1918 4.86364C44.4475 4.86364 44.6663 4.88494 44.8481 4.92756C45.0299 4.96733 45.1648 5.00426 45.2529 5.03835L44.9546 6.0696C44.895 6.05256 44.8183 6.03267 44.7245 6.00994C44.6308 5.98437 44.5171 5.97159 44.3836 5.97159C44.0739 5.97159 43.8523 6.0483 43.7188 6.2017C43.5881 6.35511 43.5228 6.5767 43.5228 6.86648V14H42.2487ZM49.503 7.45455V8.47727H45.8041V7.45455H49.503ZM46.8183 14V6.69602C46.8183 6.28693 46.9078 5.94744 47.0868 5.67756C47.2658 5.40483 47.503 5.2017 47.7985 5.06818C48.0939 4.93182 48.4149 4.86364 48.7615 4.86364C49.0172 4.86364 49.236 4.88494 49.4178 4.92756C49.5996 4.96733 49.7345 5.00426 49.8226 5.03835L49.5243 6.0696C49.4646 6.05256 49.3879 6.03267 49.2942 6.00994C49.2004 5.98437 49.0868 5.97159 48.9533 5.97159C48.6436 5.97159 48.422 6.0483 48.2885 6.2017C48.1578 6.35511 48.0925 6.5767 48.0925 6.86648V14H46.8183Z" fill="white"/>
</svg>
