<svg width="59" height="20" viewBox="0 0 59 20" fill="none" xmlns="http://www.w3.org/2000/svg">
<rect width="59" height="20" rx="10" fill="#ED6C02"/>
<path d="M7.33949 14V13.0455L10.2926 9.9858C10.608 9.65341 10.8679 9.36222 11.0724 9.11222C11.2798 8.85937 11.4347 8.61932 11.5369 8.39205C11.6392 8.16477 11.6903 7.9233 11.6903 7.66761C11.6903 7.37784 11.6222 7.12784 11.4858 6.91761C11.3494 6.70455 11.1634 6.54119 10.9276 6.42756C10.6918 6.31108 10.4261 6.25284 10.1307 6.25284C9.81818 6.25284 9.54545 6.31676 9.3125 6.4446C9.07955 6.57244 8.90057 6.75284 8.77557 6.9858C8.65057 7.21875 8.58807 7.49148 8.58807 7.80398H7.33097C7.33097 7.27273 7.45313 6.80824 7.69744 6.41051C7.94176 6.01278 8.27699 5.70455 8.70312 5.4858C9.12926 5.2642 9.61364 5.15341 10.1562 5.15341C10.7045 5.15341 11.1875 5.26278 11.6051 5.48153C12.0256 5.69744 12.3537 5.9929 12.5895 6.3679C12.8253 6.74006 12.9432 7.16051 12.9432 7.62926C12.9432 7.95312 12.8821 8.26989 12.7599 8.57955C12.6406 8.8892 12.4318 9.23437 12.1335 9.61506C11.8352 9.9929 11.4205 10.4517 10.8892 10.9915L9.15483 12.8068V12.8707H13.0838V14H7.33949ZM17.8772 14.1449C17.2039 14.142 16.6286 13.9645 16.1514 13.6122C15.6741 13.2599 15.309 12.7472 15.0562 12.0739C14.8034 11.4006 14.6769 10.5895 14.6769 9.64062C14.6769 8.6946 14.8034 7.88636 15.0562 7.21591C15.3119 6.54545 15.6784 6.03409 16.1556 5.68182C16.6357 5.32955 17.2096 5.15341 17.8772 5.15341C18.5448 5.15341 19.1173 5.33097 19.5945 5.68608C20.0718 6.03835 20.4369 6.54972 20.6897 7.22017C20.9454 7.88778 21.0732 8.6946 21.0732 9.64062C21.0732 10.5923 20.9468 11.4048 20.694 12.0781C20.4411 12.7486 20.0761 13.2614 19.5988 13.6165C19.1215 13.9688 18.5477 14.1449 17.8772 14.1449ZM17.8772 13.0071C18.4681 13.0071 18.9298 12.7188 19.2622 12.142C19.5974 11.5653 19.765 10.7315 19.765 9.64062C19.765 8.91619 19.6883 8.30398 19.5349 7.80398C19.3843 7.30114 19.167 6.92045 18.8829 6.66193C18.6016 6.40057 18.2664 6.26989 17.8772 6.26989C17.2891 6.26989 16.8275 6.55966 16.4923 7.1392C16.157 7.71875 15.988 8.55256 15.9852 9.64062C15.9852 10.3679 16.0605 10.983 16.211 11.4858C16.3644 11.9858 16.5818 12.3651 16.863 12.6236C17.1443 12.8793 17.4823 13.0071 17.8772 13.0071ZM27.2804 12.3636V11.9034C27.2804 11.5739 27.3485 11.2727 27.4849 11C27.6241 10.7244 27.8258 10.5043 28.09 10.3395C28.3571 10.1719 28.6795 10.0881 29.0573 10.0881C29.4437 10.0881 29.7676 10.1705 30.0289 10.3352C30.2903 10.5 30.4877 10.7202 30.6213 10.9957C30.7576 11.2713 30.8258 11.5739 30.8258 11.9034V12.3636C30.8258 12.6932 30.7576 12.9957 30.6213 13.2713C30.4849 13.544 30.2846 13.7642 30.0204 13.9318C29.759 14.0966 29.438 14.179 29.0573 14.179C28.6738 14.179 28.35 14.0966 28.0858 13.9318C27.8215 13.7642 27.6213 13.544 27.4849 13.2713C27.3485 12.9957 27.2804 12.6932 27.2804 12.3636ZM28.2733 11.9034V12.3636C28.2733 12.608 28.3315 12.8295 28.448 13.0284C28.5644 13.2273 28.7676 13.3267 29.0573 13.3267C29.3443 13.3267 29.5446 13.2273 29.6582 13.0284C29.7718 12.8295 29.8287 12.608 29.8287 12.3636V11.9034C29.8287 11.6591 29.7733 11.4375 29.6625 11.2386C29.5545 11.0398 29.3528 10.9403 29.0573 10.9403C28.7733 10.9403 28.5715 11.0398 28.4522 11.2386C28.3329 11.4375 28.2733 11.6591 28.2733 11.9034ZM22.8912 7.36932V6.90909C22.8912 6.57955 22.9593 6.27699 23.0957 6.00142C23.2349 5.72585 23.4366 5.50568 23.7008 5.34091C23.9679 5.17614 24.2903 5.09375 24.6681 5.09375C25.0545 5.09375 25.3784 5.17614 25.6397 5.34091C25.9011 5.50568 26.0985 5.72585 26.2321 6.00142C26.3656 6.27699 26.4323 6.57955 26.4323 6.90909V7.36932C26.4323 7.69886 26.3642 8.00142 26.2278 8.27699C26.0943 8.54972 25.8954 8.76989 25.6312 8.9375C25.3698 9.10227 25.0488 9.18466 24.6681 9.18466C24.2818 9.18466 23.9565 9.10227 23.6923 8.9375C23.4309 8.76989 23.2321 8.54972 23.0957 8.27699C22.9593 8.00142 22.8912 7.69886 22.8912 7.36932ZM23.8883 6.90909V7.36932C23.8883 7.61364 23.9451 7.83523 24.0588 8.03409C24.1752 8.23295 24.3784 8.33239 24.6681 8.33239C24.9522 8.33239 25.1511 8.23295 25.2647 8.03409C25.3812 7.83523 25.4394 7.61364 25.4394 7.36932V6.90909C25.4394 6.66477 25.384 6.44318 25.2733 6.24432C25.1625 6.04545 24.9608 5.94602 24.6681 5.94602C24.384 5.94602 24.1823 6.04545 24.063 6.24432C23.9465 6.44318 23.8883 6.66477 23.8883 6.90909ZM23.296 14L29.296 5.27273H30.3144L24.3144 14H23.296ZM38.8924 14.1321C38.2787 14.1321 37.7432 13.9915 37.2859 13.7102C36.8285 13.429 36.4734 13.0355 36.2205 12.5298C35.9677 12.0241 35.8412 11.4332 35.8412 10.7571C35.8412 10.0781 35.9677 9.48437 36.2205 8.97585C36.4734 8.46733 36.8285 8.07244 37.2859 7.79119C37.7432 7.50994 38.2787 7.36932 38.8924 7.36932C39.506 7.36932 40.0415 7.50994 40.4989 7.79119C40.9563 8.07244 41.3114 8.46733 41.5643 8.97585C41.8171 9.48437 41.9435 10.0781 41.9435 10.7571C41.9435 11.4332 41.8171 12.0241 41.5643 12.5298C41.3114 13.0355 40.9563 13.429 40.4989 13.7102C40.0415 13.9915 39.506 14.1321 38.8924 14.1321ZM38.8966 13.0625C39.2944 13.0625 39.6239 12.9574 39.8853 12.7472C40.1466 12.5369 40.3398 12.2571 40.4648 11.9077C40.5927 11.5582 40.6566 11.1733 40.6566 10.7528C40.6566 10.3352 40.5927 9.9517 40.4648 9.60227C40.3398 9.25 40.1466 8.96733 39.8853 8.75426C39.6239 8.54119 39.2944 8.43466 38.8966 8.43466C38.4961 8.43466 38.1637 8.54119 37.8995 8.75426C37.6381 8.96733 37.4435 9.25 37.3157 9.60227C37.1907 9.9517 37.1282 10.3352 37.1282 10.7528C37.1282 11.1733 37.1907 11.5582 37.3157 11.9077C37.4435 12.2571 37.6381 12.5369 37.8995 12.7472C38.1637 12.9574 38.4961 13.0625 38.8966 13.0625ZM46.6208 7.45455V8.47727H42.9219V7.45455H46.6208ZM43.9362 14V6.69602C43.9362 6.28693 44.0256 5.94744 44.2046 5.67756C44.3836 5.40483 44.6208 5.2017 44.9163 5.06818C45.2117 4.93182 45.5327 4.86364 45.8793 4.86364C46.135 4.86364 46.3538 4.88494 46.5356 4.92756C46.7174 4.96733 46.8523 5.00426 46.9404 5.03835L46.6421 6.0696C46.5825 6.05256 46.5058 6.03267 46.412 6.00994C46.3183 5.98437 46.2046 5.97159 46.0711 5.97159C45.7614 5.97159 45.5398 6.0483 45.4063 6.2017C45.2756 6.35511 45.2103 6.5767 45.2103 6.86648V14H43.9362ZM51.1905 7.45455V8.47727H47.4916V7.45455H51.1905ZM48.5058 14V6.69602C48.5058 6.28693 48.5953 5.94744 48.7743 5.67756C48.9533 5.40483 49.1905 5.2017 49.486 5.06818C49.7814 4.93182 50.1024 4.86364 50.449 4.86364C50.7047 4.86364 50.9235 4.88494 51.1053 4.92756C51.2871 4.96733 51.422 5.00426 51.5101 5.03835L51.2118 6.0696C51.1521 6.05256 51.0754 6.03267 50.9817 6.00994C50.8879 5.98437 50.7743 5.97159 50.6408 5.97159C50.3311 5.97159 50.1095 6.0483 49.976 6.2017C49.8453 6.35511 49.78 6.5767 49.78 6.86648V14H48.5058Z" fill="white"/>
</svg>
