<svg width="59" height="20" viewBox="0 0 59 20" fill="none" xmlns="http://www.w3.org/2000/svg">
<rect width="59" height="20" rx="10" fill="#ED6C02"/>
<path d="M10.3778 14.1193C9.79261 14.1193 9.26989 14.0185 8.80966 13.8168C8.35227 13.6151 7.99006 13.3352 7.72301 12.9773C7.45881 12.6165 7.31676 12.1989 7.29688 11.7244H8.63494C8.65199 11.983 8.73864 12.2074 8.89489 12.3977C9.05398 12.5852 9.26136 12.7301 9.51705 12.8324C9.77273 12.9347 10.0568 12.9858 10.3693 12.9858C10.7131 12.9858 11.017 12.9261 11.2812 12.8068C11.5483 12.6875 11.7571 12.5213 11.9077 12.3082C12.0582 12.0923 12.1335 11.8438 12.1335 11.5625C12.1335 11.2699 12.0582 11.0128 11.9077 10.7912C11.7599 10.5668 11.5426 10.3906 11.2557 10.2628C10.9716 10.1349 10.6278 10.071 10.2244 10.071H9.48722V8.99716H10.2244C10.5483 8.99716 10.8324 8.93892 11.0767 8.82244C11.3239 8.70597 11.517 8.54403 11.6562 8.33665C11.7955 8.12642 11.8651 7.88068 11.8651 7.59943C11.8651 7.32955 11.804 7.09517 11.6818 6.89631C11.5625 6.6946 11.392 6.53693 11.1705 6.4233C10.9517 6.30966 10.6932 6.25284 10.3949 6.25284C10.1108 6.25284 9.84517 6.3054 9.59801 6.41051C9.35369 6.51278 9.15483 6.66051 9.00142 6.85369C8.84801 7.04403 8.76563 7.27273 8.75426 7.53977H7.48011C7.49432 7.06818 7.63352 6.65341 7.89773 6.29545C8.16477 5.9375 8.51705 5.65767 8.95455 5.45597C9.39205 5.25426 9.87784 5.15341 10.4119 5.15341C10.9716 5.15341 11.4545 5.26278 11.8608 5.48153C12.2699 5.69744 12.5852 5.9858 12.8068 6.34659C13.0313 6.70739 13.142 7.10227 13.1392 7.53125C13.142 8.01989 13.0057 8.43466 12.7301 8.77557C12.4574 9.11648 12.0938 9.34517 11.6392 9.46165V9.52983C12.2188 9.6179 12.6676 9.84801 12.9858 10.2202C13.3068 10.5923 13.4659 11.054 13.4631 11.6051C13.4659 12.0852 13.3324 12.5156 13.0625 12.8963C12.7955 13.277 12.4304 13.5767 11.9673 13.7955C11.5043 14.0114 10.9744 14.1193 10.3778 14.1193ZM18.2522 14.1449C17.5789 14.142 17.0036 13.9645 16.5264 13.6122C16.0491 13.2599 15.684 12.7472 15.4312 12.0739C15.1784 11.4006 15.0519 10.5895 15.0519 9.64062C15.0519 8.6946 15.1784 7.88636 15.4312 7.21591C15.6869 6.54545 16.0534 6.03409 16.5306 5.68182C17.0107 5.32955 17.5846 5.15341 18.2522 5.15341C18.9198 5.15341 19.4923 5.33097 19.9695 5.68608C20.4468 6.03835 20.8119 6.54972 21.0647 7.22017C21.3204 7.88778 21.4482 8.6946 21.4482 9.64062C21.4482 10.5923 21.3218 11.4048 21.069 12.0781C20.8161 12.7486 20.4511 13.2614 19.9738 13.6165C19.4965 13.9688 18.9227 14.1449 18.2522 14.1449ZM18.2522 13.0071C18.8431 13.0071 19.3048 12.7188 19.6372 12.142C19.9724 11.5653 20.14 10.7315 20.14 9.64062C20.14 8.91619 20.0633 8.30398 19.9099 7.80398C19.7593 7.30114 19.542 6.92045 19.2579 6.66193C18.9766 6.40057 18.6414 6.26989 18.2522 6.26989C17.6641 6.26989 17.2025 6.55966 16.8673 7.1392C16.532 7.71875 16.363 8.55256 16.3602 9.64062C16.3602 10.3679 16.4355 10.983 16.586 11.4858C16.7394 11.9858 16.9568 12.3651 17.238 12.6236C17.5193 12.8793 17.8573 13.0071 18.2522 13.0071ZM27.6554 12.3636V11.9034C27.6554 11.5739 27.7235 11.2727 27.8599 11C27.9991 10.7244 28.2008 10.5043 28.465 10.3395C28.7321 10.1719 29.0545 10.0881 29.4323 10.0881C29.8187 10.0881 30.1426 10.1705 30.4039 10.3352C30.6653 10.5 30.8627 10.7202 30.9963 10.9957C31.1326 11.2713 31.2008 11.5739 31.2008 11.9034V12.3636C31.2008 12.6932 31.1326 12.9957 30.9963 13.2713C30.8599 13.544 30.6596 13.7642 30.3954 13.9318C30.134 14.0966 29.813 14.179 29.4323 14.179C29.0488 14.179 28.725 14.0966 28.4608 13.9318C28.1965 13.7642 27.9963 13.544 27.8599 13.2713C27.7235 12.9957 27.6554 12.6932 27.6554 12.3636ZM28.6483 11.9034V12.3636C28.6483 12.608 28.7065 12.8295 28.823 13.0284C28.9394 13.2273 29.1426 13.3267 29.4323 13.3267C29.7193 13.3267 29.9196 13.2273 30.0332 13.0284C30.1468 12.8295 30.2037 12.608 30.2037 12.3636V11.9034C30.2037 11.6591 30.1483 11.4375 30.0375 11.2386C29.9295 11.0398 29.7278 10.9403 29.4323 10.9403C29.1483 10.9403 28.9465 11.0398 28.8272 11.2386C28.7079 11.4375 28.6483 11.6591 28.6483 11.9034ZM23.2662 7.36932V6.90909C23.2662 6.57955 23.3343 6.27699 23.4707 6.00142C23.6099 5.72585 23.8116 5.50568 24.0758 5.34091C24.3429 5.17614 24.6653 5.09375 25.0431 5.09375C25.4295 5.09375 25.7534 5.17614 26.0147 5.34091C26.2761 5.50568 26.4735 5.72585 26.6071 6.00142C26.7406 6.27699 26.8073 6.57955 26.8073 6.90909V7.36932C26.8073 7.69886 26.7392 8.00142 26.6028 8.27699C26.4693 8.54972 26.2704 8.76989 26.0062 8.9375C25.7448 9.10227 25.4238 9.18466 25.0431 9.18466C24.6568 9.18466 24.3315 9.10227 24.0673 8.9375C23.8059 8.76989 23.6071 8.54972 23.4707 8.27699C23.3343 8.00142 23.2662 7.69886 23.2662 7.36932ZM24.2633 6.90909V7.36932C24.2633 7.61364 24.3201 7.83523 24.4338 8.03409C24.5502 8.23295 24.7534 8.33239 25.0431 8.33239C25.3272 8.33239 25.5261 8.23295 25.6397 8.03409C25.7562 7.83523 25.8144 7.61364 25.8144 7.36932V6.90909C25.8144 6.66477 25.759 6.44318 25.6483 6.24432C25.5375 6.04545 25.3358 5.94602 25.0431 5.94602C24.759 5.94602 24.5573 6.04545 24.438 6.24432C24.3215 6.44318 24.2633 6.66477 24.2633 6.90909ZM23.671 14L29.671 5.27273H30.6894L24.6894 14H23.671ZM39.2674 14.1321C38.6537 14.1321 38.1182 13.9915 37.6609 13.7102C37.2035 13.429 36.8484 13.0355 36.5955 12.5298C36.3427 12.0241 36.2162 11.4332 36.2162 10.7571C36.2162 10.0781 36.3427 9.48437 36.5955 8.97585C36.8484 8.46733 37.2035 8.07244 37.6609 7.79119C38.1182 7.50994 38.6537 7.36932 39.2674 7.36932C39.881 7.36932 40.4165 7.50994 40.8739 7.79119C41.3313 8.07244 41.6864 8.46733 41.9393 8.97585C42.1921 9.48437 42.3185 10.0781 42.3185 10.7571C42.3185 11.4332 42.1921 12.0241 41.9393 12.5298C41.6864 13.0355 41.3313 13.429 40.8739 13.7102C40.4165 13.9915 39.881 14.1321 39.2674 14.1321ZM39.2716 13.0625C39.6694 13.0625 39.9989 12.9574 40.2603 12.7472C40.5216 12.5369 40.7148 12.2571 40.8398 11.9077C40.9677 11.5582 41.0316 11.1733 41.0316 10.7528C41.0316 10.3352 40.9677 9.9517 40.8398 9.60227C40.7148 9.25 40.5216 8.96733 40.2603 8.75426C39.9989 8.54119 39.6694 8.43466 39.2716 8.43466C38.8711 8.43466 38.5387 8.54119 38.2745 8.75426C38.0131 8.96733 37.8185 9.25 37.6907 9.60227C37.5657 9.9517 37.5032 10.3352 37.5032 10.7528C37.5032 11.1733 37.5657 11.5582 37.6907 11.9077C37.8185 12.2571 38.0131 12.5369 38.2745 12.7472C38.5387 12.9574 38.8711 13.0625 39.2716 13.0625ZM46.9958 7.45455V8.47727H43.2969V7.45455H46.9958ZM44.3112 14V6.69602C44.3112 6.28693 44.4006 5.94744 44.5796 5.67756C44.7586 5.40483 44.9958 5.2017 45.2913 5.06818C45.5867 4.93182 45.9077 4.86364 46.2543 4.86364C46.51 4.86364 46.7288 4.88494 46.9106 4.92756C47.0924 4.96733 47.2273 5.00426 47.3154 5.03835L47.0171 6.0696C46.9575 6.05256 46.8808 6.03267 46.787 6.00994C46.6933 5.98437 46.5796 5.97159 46.4461 5.97159C46.1364 5.97159 45.9148 6.0483 45.7813 6.2017C45.6506 6.35511 45.5853 6.5767 45.5853 6.86648V14H44.3112ZM51.5655 7.45455V8.47727H47.8666V7.45455H51.5655ZM48.8808 14V6.69602C48.8808 6.28693 48.9703 5.94744 49.1493 5.67756C49.3283 5.40483 49.5655 5.2017 49.861 5.06818C50.1564 4.93182 50.4774 4.86364 50.824 4.86364C51.0797 4.86364 51.2985 4.88494 51.4803 4.92756C51.6621 4.96733 51.797 5.00426 51.8851 5.03835L51.5868 6.0696C51.5271 6.05256 51.4504 6.03267 51.3567 6.00994C51.2629 5.98437 51.1493 5.97159 51.0158 5.97159C50.7061 5.97159 50.4845 6.0483 50.351 6.2017C50.2203 6.35511 50.155 6.5767 50.155 6.86648V14H48.8808Z" fill="white"/>
</svg>
