<svg width="22" height="22" viewBox="0 0 22 22" fill="none" xmlns="http://www.w3.org/2000/svg">
<path d="M3.66732 11C3.66732 10.4937 4.07772 10.0833 4.58398 10.0833H12.4089C13.2998 10.0833 13.746 9.00615 13.116 8.37619L10.3498 5.60996C9.99075 5.25089 9.99178 4.6684 10.3521 4.31059C10.7107 3.95457 11.2896 3.9556 11.6469 4.31288L17.6269 10.2929C18.0174 10.6834 18.0174 11.3165 17.6269 11.7071L11.6472 17.6868C11.2901 18.0438 10.7112 18.0438 10.3541 17.6868C9.99726 17.3299 9.997 16.7514 10.3535 16.3943L13.1197 13.6231C13.7488 12.9929 13.3025 11.9166 12.412 11.9166H4.58398C4.07772 11.9166 3.66732 11.5062 3.66732 11Z" fill="#495F6A"/>
</svg>
