<svg width="18" height="18" viewBox="0 0 18 18" fill="none" xmlns="http://www.w3.org/2000/svg">
<path d="M5.66602 14C4.74935 14 4.00768 14.75 4.00768 15.6666C4.00768 16.5833 4.74935 17.3333 5.66602 17.3333C6.58268 17.3333 7.33268 16.5833 7.33268 15.6666C7.33268 14.75 6.58268 14 5.66602 14ZM1.49935 0.666626C1.03911 0.666626 0.666016 1.03972 0.666016 1.49996C0.666016 1.9602 1.03911 2.33329 1.49935 2.33329H1.70021C2.08647 2.33329 2.4382 2.55575 2.60373 2.90475L5.11324 8.19563C5.25103 8.48614 5.24073 8.82518 5.08556 9.10678L4.20768 10.7C4.07435 10.9333 3.99935 11.2083 3.99935 11.5C3.99935 12.4166 4.74935 13.1666 5.66602 13.1666H14.8327C15.2929 13.1666 15.666 12.7935 15.666 12.3333C15.666 11.8731 15.2929 11.5 14.8327 11.5H6.01602C5.9165 11.5 5.83517 11.4333 5.81341 11.3412C5.80577 11.3089 5.81176 11.2753 5.81982 11.2431C5.82836 11.2089 5.8413 11.176 5.85832 11.1452L6.29742 10.3499C6.47341 10.0312 6.80874 9.83329 7.17284 9.83329H12.791C13.416 9.83329 13.966 9.49163 14.2493 8.97496L17.2327 3.56663C17.2993 3.44996 17.3327 3.30829 17.3327 3.16663C17.3327 2.70829 16.9577 2.33329 16.4993 2.33329H4.80929C4.42176 2.33329 4.06911 2.10938 3.90427 1.75865L3.6611 1.24127C3.49625 0.890536 3.14361 0.666626 2.75607 0.666626H1.49935ZM13.9993 14C13.0827 14 12.341 14.75 12.341 15.6666C12.341 16.5833 13.0827 17.3333 13.9993 17.3333C14.916 17.3333 15.666 16.5833 15.666 15.6666C15.666 14.75 14.916 14 13.9993 14Z" fill="white"/>
</svg>
