<svg width="90" height="16" viewBox="0 0 90 16" fill="none" xmlns="http://www.w3.org/2000/svg">
<path d="M7.77273 3.27273C7.70455 2.69697 7.42803 2.25 6.94318 1.93182C6.45833 1.61364 5.86364 1.45455 5.15909 1.45455C4.64394 1.45455 4.19318 1.53788 3.80682 1.70455C3.42424 1.87121 3.125 2.10038 2.90909 2.39205C2.69697 2.68371 2.59091 3.01515 2.59091 3.38636C2.59091 3.69697 2.66477 3.96401 2.8125 4.1875C2.96402 4.4072 3.1572 4.59091 3.39205 4.73864C3.62689 4.88258 3.87311 5.00189 4.13068 5.09659C4.38826 5.1875 4.625 5.26136 4.84091 5.31818L6.02273 5.63636C6.32576 5.71591 6.66288 5.82576 7.03409 5.96591C7.40909 6.10606 7.76705 6.29735 8.10795 6.53977C8.45265 6.77841 8.73674 7.08523 8.96023 7.46023C9.18371 7.83523 9.29545 8.29545 9.29545 8.84091C9.29545 9.4697 9.13068 10.0379 8.80114 10.5455C8.47538 11.053 7.99811 11.4564 7.36932 11.7557C6.74432 12.0549 5.98485 12.2045 5.09091 12.2045C4.25758 12.2045 3.53598 12.0701 2.92614 11.8011C2.32008 11.5322 1.8428 11.1572 1.49432 10.6761C1.14962 10.1951 0.954545 9.63636 0.909091 9H2.36364C2.40152 9.43939 2.54924 9.80303 2.80682 10.0909C3.06818 10.375 3.39773 10.5871 3.79545 10.7273C4.19697 10.8636 4.62879 10.9318 5.09091 10.9318C5.62879 10.9318 6.11174 10.8447 6.53977 10.6705C6.9678 10.4924 7.30682 10.2462 7.55682 9.93182C7.80682 9.61364 7.93182 9.24242 7.93182 8.81818C7.93182 8.43182 7.82386 8.11742 7.60795 7.875C7.39205 7.63258 7.10795 7.43561 6.75568 7.28409C6.40341 7.13258 6.02273 7 5.61364 6.88636L4.18182 6.47727C3.27273 6.21591 2.55303 5.8428 2.02273 5.35795C1.49242 4.87311 1.22727 4.23864 1.22727 3.45455C1.22727 2.80303 1.40341 2.23485 1.75568 1.75C2.11174 1.26136 2.58902 0.882575 3.1875 0.613636C3.78977 0.340909 4.46212 0.204545 5.20455 0.204545C5.95455 0.204545 6.62121 0.339015 7.20455 0.607954C7.78788 0.873105 8.25 1.23674 8.59091 1.69886C8.93561 2.16098 9.11742 2.68561 9.13636 3.27273H7.77273ZM12.9213 6.75V12H11.5804V0.363636H12.9213V4.63636H13.0349C13.2395 4.18561 13.5463 3.82765 13.9554 3.5625C14.3683 3.29356 14.9175 3.15909 15.6031 3.15909C16.1978 3.15909 16.7187 3.27841 17.1656 3.51705C17.6126 3.75189 17.9592 4.11364 18.2054 4.60227C18.4554 5.08712 18.5804 5.70455 18.5804 6.45455V12H17.2395V6.54545C17.2395 5.85227 17.0596 5.31629 16.6997 4.9375C16.3437 4.55492 15.8493 4.36364 15.2168 4.36364C14.7774 4.36364 14.3834 4.45644 14.0349 4.64205C13.6902 4.82765 13.4175 5.09848 13.2168 5.45455C13.0198 5.81061 12.9213 6.24242 12.9213 6.75ZM24.729 12.1818C23.9411 12.1818 23.2498 11.9943 22.6551 11.6193C22.0642 11.2443 21.6021 10.7197 21.2687 10.0455C20.9392 9.37121 20.7744 8.58333 20.7744 7.68182C20.7744 6.77273 20.9392 5.97917 21.2687 5.30114C21.6021 4.62311 22.0642 4.09659 22.6551 3.72159C23.2498 3.34659 23.9411 3.15909 24.729 3.15909C25.5169 3.15909 26.2062 3.34659 26.7972 3.72159C27.3919 4.09659 27.854 4.62311 28.1835 5.30114C28.5169 5.97917 28.6835 6.77273 28.6835 7.68182C28.6835 8.58333 28.5169 9.37121 28.1835 10.0455C27.854 10.7197 27.3919 11.2443 26.7972 11.6193C26.2062 11.9943 25.5169 12.1818 24.729 12.1818ZM24.729 10.9773C25.3275 10.9773 25.8199 10.8239 26.2062 10.517C26.5926 10.2102 26.8786 9.80682 27.0642 9.30682C27.2498 8.80682 27.3426 8.26515 27.3426 7.68182C27.3426 7.09848 27.2498 6.55492 27.0642 6.05114C26.8786 5.54735 26.5926 5.14015 26.2062 4.82955C25.8199 4.51894 25.3275 4.36364 24.729 4.36364C24.1305 4.36364 23.6381 4.51894 23.2517 4.82955C22.8653 5.14015 22.5794 5.54735 22.3937 6.05114C22.2081 6.55492 22.1153 7.09848 22.1153 7.68182C22.1153 8.26515 22.2081 8.80682 22.3937 9.30682C22.5794 9.80682 22.8653 10.2102 23.2517 10.517C23.6381 10.8239 24.1305 10.9773 24.729 10.9773ZM30.8804 15.2727V3.27273H32.1759V4.65909H32.3349C32.4334 4.50758 32.5698 4.31439 32.744 4.07955C32.9221 3.84091 33.1759 3.62879 33.5054 3.44318C33.8387 3.25379 34.2895 3.15909 34.8577 3.15909C35.5925 3.15909 36.2402 3.3428 36.8009 3.71023C37.3615 4.07765 37.799 4.59848 38.1134 5.27273C38.4277 5.94697 38.5849 6.74242 38.5849 7.65909C38.5849 8.58333 38.4277 9.38447 38.1134 10.0625C37.799 10.7367 37.3634 11.2595 36.8065 11.6307C36.2497 11.9981 35.6077 12.1818 34.8804 12.1818C34.3198 12.1818 33.8709 12.089 33.5338 11.9034C33.1967 11.714 32.9372 11.5 32.7554 11.2614C32.5736 11.0189 32.4334 10.8182 32.3349 10.6591H32.2213V15.2727H30.8804ZM32.1986 7.63636C32.1986 8.29545 32.2952 8.87689 32.4884 9.38068C32.6815 9.88068 32.9637 10.2727 33.3349 10.5568C33.7062 10.8371 34.1607 10.9773 34.6986 10.9773C35.2592 10.9773 35.727 10.8295 36.102 10.5341C36.4808 10.2348 36.7649 9.83333 36.9543 9.32955C37.1474 8.82197 37.244 8.25758 37.244 7.63636C37.244 7.02273 37.1493 6.4697 36.9599 5.97727C36.7743 5.48106 36.4921 5.08902 36.1134 4.80114C35.7384 4.50947 35.2668 4.36364 34.6986 4.36364C34.1531 4.36364 33.6948 4.50189 33.3236 4.77841C32.9524 5.05114 32.6721 5.43371 32.4827 5.92614C32.2933 6.41477 32.1986 6.98485 32.1986 7.63636ZM46.7713 6.75V12H45.4304V3.27273H46.7259V4.63636H46.8395C47.044 4.19318 47.3546 3.83712 47.7713 3.56818C48.188 3.29545 48.7259 3.15909 49.3849 3.15909C49.9759 3.15909 50.4929 3.2803 50.9361 3.52273C51.3793 3.76136 51.724 4.125 51.9702 4.61364C52.2164 5.09848 52.3395 5.71212 52.3395 6.45455V12H50.9986V6.54545C50.9986 5.85985 50.8205 5.32576 50.4645 4.94318C50.1084 4.55682 49.6198 4.36364 48.9986 4.36364C48.5705 4.36364 48.188 4.45644 47.8509 4.64205C47.5175 4.82765 47.2543 5.09848 47.0611 5.45455C46.8679 5.81061 46.7713 6.24242 46.7713 6.75ZM58.4852 12.1818C57.6974 12.1818 57.0061 11.9943 56.4114 11.6193C55.8205 11.2443 55.3583 10.7197 55.025 10.0455C54.6955 9.37121 54.5307 8.58333 54.5307 7.68182C54.5307 6.77273 54.6955 5.97917 55.025 5.30114C55.3583 4.62311 55.8205 4.09659 56.4114 3.72159C57.0061 3.34659 57.6974 3.15909 58.4852 3.15909C59.2731 3.15909 59.9625 3.34659 60.5534 3.72159C61.1481 4.09659 61.6102 4.62311 61.9398 5.30114C62.2731 5.97917 62.4398 6.77273 62.4398 7.68182C62.4398 8.58333 62.2731 9.37121 61.9398 10.0455C61.6102 10.7197 61.1481 11.2443 60.5534 11.6193C59.9625 11.9943 59.2731 12.1818 58.4852 12.1818ZM58.4852 10.9773C59.0837 10.9773 59.5761 10.8239 59.9625 10.517C60.3489 10.2102 60.6349 9.80682 60.8205 9.30682C61.0061 8.80682 61.0989 8.26515 61.0989 7.68182C61.0989 7.09848 61.0061 6.55492 60.8205 6.05114C60.6349 5.54735 60.3489 5.14015 59.9625 4.82955C59.5761 4.51894 59.0837 4.36364 58.4852 4.36364C57.8867 4.36364 57.3943 4.51894 57.008 4.82955C56.6216 5.14015 56.3356 5.54735 56.15 6.05114C55.9644 6.55492 55.8716 7.09848 55.8716 7.68182C55.8716 8.26515 55.9644 8.80682 56.15 9.30682C56.3356 9.80682 56.6216 10.2102 57.008 10.517C57.3943 10.8239 57.8867 10.9773 58.4852 10.9773ZM66.317 12L63.658 3.27273H65.067L66.9534 9.95455H67.0443L68.908 3.27273H70.3398L72.1807 9.93182H72.2716L74.158 3.27273H75.567L72.908 12H71.5898L69.6807 5.29545H69.5443L67.6352 12H66.317ZM89.8443 7.90909L82.5261 11.6364V10.1818L88.1398 7.47727L88.0943 7.56818V7.34091L88.1398 7.43182L82.5261 4.72727V3.27273L89.8443 7V7.90909Z" fill="#C4CFD4"/>
</svg>
