<svg width="79" height="24" viewBox="0 0 79 24" fill="none" xmlns="http://www.w3.org/2000/svg">
<path d="M6.30901 4.23276C6.30901 5.0348 6.09196 5.67318 5.65698 6.14981C5.16336 6.71641 4.51921 6.99971 3.72802 6.99971C2.97009 6.99971 2.32507 6.71258 1.79556 6.13833C1.26519 5.56312 1 4.85104 1 4.00115C1 3.15029 1.26519 2.43822 1.79556 1.86396C2.32507 1.28875 2.97009 1.00163 3.72802 1.00163C4.10436 1.00163 4.46407 1.08202 4.80541 1.24186C5.14761 1.40265 5.42155 1.61608 5.62635 1.88311L5.16511 2.38845C4.81766 1.93383 4.33892 1.707 3.72715 1.707C3.17402 1.707 2.69615 1.91948 2.29268 2.34442C1.88921 2.76937 1.68791 3.32161 1.68791 4.00019C1.68791 4.67877 1.88921 5.23101 2.29268 5.65595C2.69615 6.0809 3.17402 6.29338 3.72715 6.29338C4.31354 6.29338 4.80278 6.07995 5.194 5.65213C5.44781 5.37361 5.59484 4.98599 5.63423 4.48926H3.72715V3.7992H6.27138C6.29763 3.94946 6.30901 4.09398 6.30901 4.23276Z" fill="white"/>
<path d="M10.3438 1.83435H7.95274V3.65473H10.1092V4.3448H7.95274V6.16518H10.3438V6.87151H7.27795V1.12897H10.3438V1.83435Z" fill="white"/>
<path d="M13.189 6.87151H12.5142V1.83435H11.0474V1.12897H14.6559V1.83435H13.189V6.87151Z" fill="white"/>
<path d="M17.2666 6.87151V1.12897H17.9413V6.87151H17.2666Z" fill="white"/>
<path d="M20.9338 6.87151H20.259V1.83435H18.7922V1.12897H22.4007V1.83435H20.9338V6.87151Z" fill="white"/>
<path d="M29.2315 6.12976C28.7151 6.70976 28.0736 6.99976 27.306 6.99976C26.5385 6.99976 25.8969 6.70976 25.3814 6.12976C24.8651 5.54976 24.6078 4.8396 24.6078 4.00023C24.6078 3.16087 24.8651 2.4507 25.3814 1.87071C25.8969 1.29071 26.5385 0.999756 27.306 0.999756C28.0692 0.999756 28.7099 1.29167 29.228 1.87454C29.7461 2.4574 30.0052 3.16565 30.0052 4.00023C30.0052 4.8396 29.747 5.54976 29.2315 6.12976ZM25.8794 5.64834C26.268 6.07903 26.7433 6.29342 27.306 6.29342C27.8688 6.29342 28.3449 6.07808 28.7326 5.64834C29.1212 5.21765 29.3164 4.66828 29.3164 4.00023C29.3164 3.33219 29.1212 2.78282 28.7326 2.35212C28.3449 1.92143 27.8688 1.70705 27.306 1.70705C26.7433 1.70705 26.268 1.92239 25.8794 2.35212C25.4917 2.78282 25.2965 3.33219 25.2965 4.00023C25.2965 4.66828 25.4917 5.21765 25.8794 5.64834Z" fill="white"/>
<path d="M30.9522 6.87151V1.12897H31.7731L34.3252 5.59571H34.3541L34.3252 4.48932V1.12897H35V6.87151H34.2955L31.6252 2.18752H31.5963L31.6252 3.29391V6.87151H30.9522Z" fill="white"/>
<path d="M6.30901 4.23276C6.30901 5.0348 6.09196 5.67318 5.65698 6.14981C5.16336 6.71641 4.51921 6.99971 3.72802 6.99971C2.97009 6.99971 2.32507 6.71258 1.79556 6.13833C1.26519 5.56312 1 4.85104 1 4.00115C1 3.15029 1.26519 2.43822 1.79556 1.86396C2.32507 1.28875 2.97009 1.00163 3.72802 1.00163C4.10436 1.00163 4.46407 1.08202 4.80541 1.24186C5.14761 1.40265 5.42155 1.61608 5.62635 1.88311L5.16511 2.38845C4.81766 1.93383 4.33892 1.707 3.72715 1.707C3.17402 1.707 2.69615 1.91948 2.29268 2.34442C1.88921 2.76937 1.68791 3.32161 1.68791 4.00019C1.68791 4.67877 1.88921 5.23101 2.29268 5.65595C2.69615 6.0809 3.17402 6.29338 3.72715 6.29338C4.31354 6.29338 4.80278 6.07995 5.194 5.65213C5.44781 5.37361 5.59484 4.98599 5.63423 4.48926H3.72715V3.7992H6.27138C6.29763 3.94946 6.30901 4.09398 6.30901 4.23276Z" stroke="white" stroke-width="0.22" stroke-miterlimit="10"/>
<path d="M10.3438 1.83435H7.95274V3.65473H10.1092V4.3448H7.95274V6.16518H10.3438V6.87151H7.27795V1.12897H10.3438V1.83435Z" stroke="white" stroke-width="0.22" stroke-miterlimit="10"/>
<path d="M13.189 6.87151H12.5142V1.83435H11.0474V1.12897H14.6559V1.83435H13.189V6.87151Z" stroke="white" stroke-width="0.22" stroke-miterlimit="10"/>
<path d="M17.2666 6.87151V1.12897H17.9413V6.87151H17.2666Z" stroke="white" stroke-width="0.22" stroke-miterlimit="10"/>
<path d="M20.9338 6.87151H20.259V1.83435H18.7922V1.12897H22.4007V1.83435H20.9338V6.87151Z" stroke="white" stroke-width="0.22" stroke-miterlimit="10"/>
<path d="M29.2315 6.12976C28.7151 6.70976 28.0736 6.99976 27.306 6.99976C26.5385 6.99976 25.8969 6.70976 25.3814 6.12976C24.8651 5.54976 24.6078 4.8396 24.6078 4.00023C24.6078 3.16087 24.8651 2.4507 25.3814 1.87071C25.8969 1.29071 26.5385 0.999756 27.306 0.999756C28.0692 0.999756 28.7099 1.29167 29.228 1.87454C29.7461 2.4574 30.0052 3.16565 30.0052 4.00023C30.0052 4.8396 29.747 5.54976 29.2315 6.12976ZM25.8794 5.64834C26.268 6.07903 26.7433 6.29342 27.306 6.29342C27.8688 6.29342 28.3449 6.07808 28.7326 5.64834C29.1212 5.21765 29.3164 4.66828 29.3164 4.00023C29.3164 3.33219 29.1212 2.78282 28.7326 2.35212C28.3449 1.92143 27.8688 1.70705 27.306 1.70705C26.7433 1.70705 26.268 1.92239 25.8794 2.35212C25.4917 2.78282 25.2965 3.33219 25.2965 4.00023C25.2965 4.66828 25.4917 5.21765 25.8794 5.64834Z" stroke="white" stroke-width="0.22" stroke-miterlimit="10"/>
<path d="M30.9522 6.87151V1.12897H31.7731L34.3252 5.59571H34.3541L34.3252 4.48932V1.12897H35V6.87151H34.2955L31.6252 2.18752H31.5963L31.6252 3.29391V6.87151H30.9522Z" stroke="white" stroke-width="0.22" stroke-miterlimit="10"/>
<path d="M25.9284 13.8668C23.7644 13.8668 22.0006 15.3375 22.0006 17.3631C22.0006 19.3764 23.7644 20.8594 25.9284 20.8594C28.0934 20.8594 29.8571 19.3764 29.8571 17.3631C29.8562 15.3375 28.0924 13.8668 25.9284 13.8668ZM25.9284 19.4833C24.7425 19.4833 23.7203 18.6094 23.7203 17.3639C23.7203 16.1053 24.7434 15.2446 25.9284 15.2446C27.1144 15.2446 28.1366 16.1053 28.1366 17.3639C28.1366 18.6086 27.1144 19.4833 25.9284 19.4833ZM17.3589 13.8668C15.1949 13.8668 13.4311 15.3375 13.4311 17.3631C13.4311 19.3764 15.1949 20.8594 17.3589 20.8594C19.5238 20.8594 21.2876 19.3764 21.2876 17.3631C21.2876 15.3375 19.5238 13.8668 17.3589 13.8668ZM17.3589 19.4833C16.1729 19.4833 15.1507 18.6094 15.1507 17.3639C15.1507 16.1053 16.1738 15.2446 17.3589 15.2446C18.5448 15.2446 19.567 16.1053 19.567 17.3639C19.568 18.6086 18.5448 19.4833 17.3589 19.4833ZM7.16632 14.9404V16.4235H11.1392C11.0205 17.2579 10.7095 17.867 10.2348 18.2904C9.65695 18.8067 8.75252 19.3764 7.16632 19.3764C4.72077 19.3764 2.80886 17.6147 2.80886 15.4296C2.80886 13.2445 4.72077 11.4828 7.16632 11.4828C8.4857 11.4828 9.44902 11.9464 10.1602 12.5424L11.3315 11.4959C10.3378 10.6484 9.01935 9.99976 7.16632 9.99976C3.81634 9.99976 1 12.4364 1 15.4296C1 18.4228 3.81634 20.8594 7.16632 20.8594C8.97426 20.8594 10.3387 20.3292 11.4051 19.3361C12.5018 18.3562 12.8432 16.9784 12.8432 15.8661C12.8432 15.5225 12.8137 15.2043 12.7539 14.9396L7.16632 14.9404ZM48.8529 16.0922C48.5272 15.3112 47.5336 13.8668 45.503 13.8668C43.4871 13.8668 41.8116 15.2841 41.8116 17.3631C41.8116 19.323 43.4724 20.8594 45.6953 20.8594C47.4885 20.8594 48.5263 19.8795 48.9569 19.3098L47.6228 18.5148C47.1784 19.0977 46.5702 19.4816 45.6953 19.4816C44.8212 19.4816 44.1983 19.124 43.7981 18.422L49.0305 16.4884L48.8529 16.0922ZM43.5165 17.2579C43.4724 15.9064 44.6878 15.2183 45.5628 15.2183C46.2445 15.2183 46.8223 15.5233 47.0155 15.9598L43.5165 17.2579ZM39.263 20.6481H40.9817V10.3713H39.263V20.6481ZM36.4458 14.6486H36.3869C36.0014 14.2376 35.2598 13.8668 34.3268 13.8668C32.3698 13.8668 30.5766 15.4033 30.5766 17.3771C30.5766 19.3369 32.3698 20.8602 34.3268 20.8602C35.2607 20.8602 36.0014 20.4895 36.3869 20.0661H36.4458V20.5692C36.4458 21.9067 35.6453 22.622 34.3563 22.622C33.3037 22.622 32.6514 21.947 32.3846 21.3773L30.8876 21.9339C31.3173 22.8604 32.4582 23.9998 34.3563 23.9998C36.3722 23.9998 38.077 22.9401 38.077 20.3571V14.0797H36.4467V14.6486H36.4458ZM34.475 19.4833C33.289 19.4833 32.2962 18.5954 32.2962 17.3771C32.2962 16.1448 33.289 15.2446 34.475 15.2446C35.6453 15.2446 36.5645 16.1448 36.5645 17.3771C36.5645 18.5954 35.6453 19.4833 34.475 19.4833ZM56.9072 10.3713H52.7936V20.6481H54.5095V16.7548H56.9063C58.809 16.7548 60.6805 15.5241 60.6805 13.5635C60.6805 11.6028 58.81 10.3713 56.9072 10.3713ZM56.9514 15.3244H54.5095V11.8018H56.9514C58.2349 11.8018 58.9636 12.7513 58.9636 13.5635C58.9636 14.3592 58.2349 15.3244 56.9514 15.3244ZM67.5617 13.8487C66.3187 13.8487 65.0315 14.3379 64.4988 15.4222L66.0224 15.9902C66.3481 15.4222 66.9553 15.2364 67.5911 15.2364C68.479 15.2364 69.3816 15.7124 69.3963 16.5583V16.6643C69.0853 16.5057 68.4192 16.2681 67.6058 16.2681C65.9635 16.2681 64.2908 17.0746 64.2908 18.5814C64.2908 19.9568 65.6378 20.8422 67.1467 20.8422C68.3005 20.8422 68.9372 20.3793 69.3365 19.8368H69.3954V20.6301H71.0533V16.6898C71.0543 14.8665 69.5288 13.8487 67.5617 13.8487ZM67.3537 19.4808C66.7925 19.4808 66.0077 19.2292 66.0077 18.6077C66.0077 17.8144 66.9848 17.5103 67.8285 17.5103C68.582 17.5103 68.9381 17.6558 69.3963 17.8539C69.2629 18.8067 68.3456 19.4808 67.3537 19.4808ZM77.0909 14.0732L75.1228 18.5288H75.0639L73.0214 14.0732H71.172L74.235 20.3004L72.4887 23.7646H74.2791L79 14.0732H77.0909ZM61.6281 20.6481H63.3441V10.3713H61.6281V20.6481Z" fill="white"/>
</svg>
