<svg width="80" height="23" viewBox="0 0 80 23" fill="none" xmlns="http://www.w3.org/2000/svg">
<path d="M0 0.277524V5.91792H2.18889C3.99546 5.91792 5.04159 4.88208 5.04159 3.08013C5.04159 1.30554 3.98706 0.277524 2.18889 0.277524H0ZM0.941097 1.07492H2.08386C3.34006 1.07492 4.08369 1.81759 4.08369 3.09186C4.08369 4.38567 3.35266 5.12052 2.08386 5.12052H0.941097V1.07492Z" fill="white"/>
<path d="M8.24553 6C9.58155 6 10.4008 5.16743 10.4008 3.78762C10.4008 2.41564 9.57735 1.57915 8.24553 1.57915C6.9095 1.57915 6.08604 2.41564 6.08604 3.78762C6.08604 5.16743 6.9053 6 8.24553 6ZM8.24553 5.25342C7.45988 5.25342 7.01874 4.71792 7.01874 3.78762C7.01874 2.86515 7.45988 2.32573 8.24553 2.32573C9.02697 2.32573 9.47231 2.86515 9.47231 3.78762C9.47231 4.71401 9.02697 5.25342 8.24553 5.25342Z" fill="white"/>
<path d="M17.3775 1.66124H16.4742L15.6592 4.90945H15.5878L14.6467 1.66124H13.7812L12.8401 4.90945H12.7729L11.9536 1.66124H11.0377L12.2981 5.91792H13.2266L14.1677 2.78306H14.2391L15.1844 5.91792H16.1213L17.3775 1.66124Z" fill="white"/>
<path d="M18.4178 5.91792H19.3211V3.42801C19.3211 2.76352 19.7454 2.34919 20.4134 2.34919C21.0814 2.34919 21.4007 2.68925 21.4007 3.37329V5.91792H22.304V3.16221C22.304 2.14984 21.741 1.57915 20.7201 1.57915C20.0311 1.57915 19.5773 1.8645 19.3547 2.33746H19.2875V1.66124H18.4178V5.91792Z" fill="white"/>
<path d="M23.7266 5.91792H24.6299V0H23.7266V5.91792Z" fill="white"/>
<path d="M28.0271 6C29.3631 6 30.1823 5.16743 30.1823 3.78762C30.1823 2.41564 29.3589 1.57915 28.0271 1.57915C26.691 1.57915 25.8676 2.41564 25.8676 3.78762C25.8676 5.16743 26.6868 6 28.0271 6ZM28.0271 5.25342C27.2414 5.25342 26.8003 4.71792 26.8003 3.78762C26.8003 2.86515 27.2414 2.32573 28.0271 2.32573C28.8085 2.32573 29.2538 2.86515 29.2538 3.78762C29.2538 4.71401 28.8085 5.25342 28.0271 5.25342Z" fill="white"/>
<path d="M32.8737 5.28078C32.3822 5.28078 32.025 5.05798 32.025 4.67492C32.025 4.29967 32.3107 4.10033 32.9409 4.06124L34.0585 3.99479V4.35049C34.0585 4.87818 33.5543 5.28078 32.8737 5.28078ZM32.6426 5.98827C33.2434 5.98827 33.7434 5.74593 34.0165 5.31987H34.0879V5.91792H34.9576V3.00977C34.9576 2.11075 34.3106 1.57915 33.1636 1.57915C32.1259 1.57915 31.3864 2.04821 31.294 2.77915H32.1679C32.2687 2.47818 32.6174 2.30619 33.1216 2.30619C33.7392 2.30619 34.0585 2.56026 34.0585 3.00977V3.3772L32.8191 3.44365C31.7309 3.50619 31.1176 3.94788 31.1176 4.71401C31.1176 5.49186 31.7604 5.98827 32.6426 5.98827Z" fill="white"/>
<path d="M38.0229 5.98827C38.6531 5.98827 39.1866 5.71075 39.4597 5.2456H39.5311V5.91792H40.3966V0H39.4933V2.33746H39.4261C39.1782 1.8684 38.6489 1.59088 38.0229 1.59088C36.8675 1.59088 36.1239 2.443 36.1239 3.78762C36.1239 5.13616 36.8591 5.98827 38.0229 5.98827ZM38.2791 2.34528C39.0354 2.34528 39.5101 2.90423 39.5101 3.79153C39.5101 4.68274 39.0396 5.23388 38.2791 5.23388C37.5145 5.23388 37.0565 4.69055 37.0565 3.78762C37.0565 2.89251 37.5187 2.34528 38.2791 2.34528Z" fill="white"/>
<path d="M46.2541 6C47.5901 6 48.4094 5.16743 48.4094 3.78762C48.4094 2.41564 47.5859 1.57915 46.2541 1.57915C44.9181 1.57915 44.0946 2.41564 44.0946 3.78762C44.0946 5.16743 44.9139 6 46.2541 6ZM46.2541 5.25342C45.4684 5.25342 45.0273 4.71792 45.0273 3.78762C45.0273 2.86515 45.4684 2.32573 46.2541 2.32573C47.0355 2.32573 47.4809 2.86515 47.4809 3.78762C47.4809 4.71401 47.0355 5.25342 46.2541 5.25342Z" fill="white"/>
<path d="M49.6051 5.91792H50.5084V3.42801C50.5084 2.76352 50.9327 2.34919 51.6007 2.34919C52.2687 2.34919 52.588 2.68925 52.588 3.37329V5.91792H53.4913V3.16221C53.4913 2.14984 52.9283 1.57915 51.9074 1.57915C51.2184 1.57915 50.7646 1.8645 50.542 2.33746H50.4748V1.66124H49.6051V5.91792Z" fill="white"/>
<path d="M57.6515 0.601954V1.68078H56.9246V2.38827H57.6515V4.79218C57.6515 5.61303 58.0506 5.94137 59.0547 5.94137C59.2312 5.94137 59.3992 5.92182 59.5463 5.89837V5.1987C59.4202 5.21042 59.3404 5.21824 59.2017 5.21824C58.7522 5.21824 58.5547 5.0228 58.5547 4.5772V2.38827H59.5463V1.68078H58.5547V0.601954H57.6515Z" fill="white"/>
<path d="M60.7588 5.91792H61.662V3.43192C61.662 2.78697 62.0738 2.35309 62.8132 2.35309C63.4518 2.35309 63.7921 2.69707 63.7921 3.3772V5.91792H64.6954V3.17003C64.6954 2.15765 64.0946 1.58306 63.1199 1.58306C62.4309 1.58306 61.9477 1.8684 61.7251 2.34528H61.6536V0H60.7588V5.91792Z" fill="white"/>
<path d="M67.9539 2.29446C68.622 2.29446 69.0589 2.72834 69.0799 3.39674H66.7692C66.8196 2.73225 67.2859 2.29446 67.9539 2.29446ZM69.0757 4.76873C68.9077 5.10098 68.5337 5.28469 67.9876 5.28469C67.2649 5.28469 66.7986 4.81173 66.7692 4.06515V4.01824H70V3.72508C70 2.38827 69.2312 1.57915 67.9582 1.57915C66.6683 1.57915 65.8491 2.443 65.8491 3.80326C65.8491 5.16352 66.6515 6 67.9623 6C69.0085 6 69.7395 5.53094 69.9454 4.76873H69.0757Z" fill="white"/>
<path d="M50.1607 10.2707V12.311H48.6305V13.6489H50.1607V18.1951C50.1607 19.7475 51.001 20.3684 53.115 20.3684C53.4865 20.3684 53.8403 20.3314 54.1499 20.2871V18.9639C53.8845 18.9861 53.7164 19.0009 53.4245 19.0009C52.4781 19.0009 52.0624 18.6312 52.0624 17.7885V13.6489H54.1499V12.311H52.0624V10.2707H50.1607Z" fill="white"/>
<path d="M59.5351 20.4793C62.3479 20.4793 64.0727 18.9048 64.0727 16.2953C64.0727 13.7007 62.3391 12.1188 59.5351 12.1188C56.7224 12.1188 54.9887 13.7007 54.9887 16.2953C54.9887 18.9048 56.7135 20.4793 59.5351 20.4793ZM59.5351 19.0674C57.8811 19.0674 56.9524 18.0547 56.9524 16.2953C56.9524 14.5508 57.8811 13.5307 59.5351 13.5307C61.1803 13.5307 62.1179 14.5508 62.1179 16.2953C62.1179 18.0473 61.1803 19.0674 59.5351 19.0674Z" fill="white"/>
<path d="M65.5484 20.324H67.4501V15.5709C67.4501 14.4399 68.4673 13.6785 69.9091 13.6785C70.2452 13.6785 70.8113 13.7303 70.9705 13.7746V12.2075C70.7671 12.1631 70.4044 12.1409 70.1214 12.1409C68.8654 12.1409 67.7951 12.7175 67.5209 13.5085H67.3794V12.274H65.5484V20.324Z" fill="white"/>
<path d="M75.6924 13.4715C77.0988 13.4715 78.0187 14.2921 78.0629 15.5561H73.1981C73.3042 14.2995 74.286 13.4715 75.6924 13.4715ZM78.0541 18.1508C77.7003 18.7791 76.913 19.1265 75.7632 19.1265C74.2418 19.1265 73.26 18.2321 73.1981 16.8202V16.7315H80V16.1771C80 13.6489 78.3813 12.1188 75.7013 12.1188C72.9858 12.1188 71.261 13.7524 71.261 16.3249C71.261 18.8974 72.9504 20.4793 75.7101 20.4793C77.9125 20.4793 79.4516 19.5922 79.885 18.1508H78.0541Z" fill="white"/>
<path d="M37.6896 17.3513C37.8362 19.328 39.8073 20.5922 42.741 20.5922C45.8764 20.5922 47.8383 19.2667 47.8383 17.1521C47.8383 15.4895 46.7198 14.5701 44.0061 14.0414L42.5485 13.7426C40.8249 13.4055 40.1282 12.9535 40.1282 12.1643C40.1282 11.1683 41.21 10.517 42.8327 10.517C44.3729 10.517 45.4363 11.1529 45.6288 12.172H47.6274C47.5082 10.3102 45.5463 9 42.8602 9C39.9723 9 38.0471 10.3102 38.0471 12.2792C38.0471 13.9035 39.1381 14.8689 41.5308 15.3363L43.236 15.681C44.9871 16.0258 45.7572 16.5315 45.7572 17.3743C45.7572 18.355 44.547 19.0675 42.8968 19.0675C41.1275 19.0675 39.899 18.4009 39.7248 17.3513H37.6896Z" fill="white"/>
<path d="M17.9898 12.1409C16.6807 12.1409 15.5485 12.688 14.9648 13.6046H14.8232V12.274H12.9923V23H14.894V19.1043H15.0444C15.5485 19.9544 16.6365 20.4571 18.0075 20.4571C20.4399 20.4571 21.9878 18.853 21.9878 16.2953C21.9878 13.7376 20.4399 12.1409 17.9898 12.1409ZM17.4503 19.0304C15.8581 19.0304 14.8586 17.9807 14.8586 16.3027C14.8586 14.6173 15.8581 13.5676 17.4591 13.5676C19.0689 13.5676 20.033 14.5951 20.033 16.2953C20.033 18.0029 19.0689 19.0304 17.4503 19.0304Z" fill="white"/>
<path d="M28.6422 12.1409C27.3331 12.1409 26.2009 12.688 25.6172 13.6046H25.4756V12.274H23.6447V23H25.5464V19.1043H25.6968C26.2009 19.9544 27.2889 20.4571 28.6599 20.4571C31.0923 20.4571 32.6402 18.853 32.6402 16.2953C32.6402 13.7376 31.0923 12.1409 28.6422 12.1409ZM28.1026 19.0304C26.5105 19.0304 25.511 17.9807 25.511 16.3027C25.511 14.6173 26.5105 13.5676 28.1115 13.5676C29.7213 13.5676 30.6854 14.5951 30.6854 16.2953C30.6854 18.0029 29.7213 19.0304 28.1026 19.0304Z" fill="white"/>
<path d="M9.5803 20.324H11.7622L6.98582 9.26816H4.7764L0 20.324H2.10858L3.32789 17.3896H8.37015L9.5803 20.324ZM5.77568 11.2755H5.93153L7.84759 15.9492H3.85045L5.77568 11.2755Z" fill="white"/>
</svg>
